<?xml version="1.0" encoding="UTF-8" standalone="no"?><!DOCTYPE svg PUBLIC "-//W3C//DTD SVG 1.1//EN" "http://www.w3.org/Graphics/SVG/1.1/DTD/svg11.dtd"><svg width="100%" height="100%" viewBox="705.300 102.800 379 344" version="1.1" xmlns="http://www.w3.org/2000/svg" xmlns:xlink="http://www.w3.org/1999/xlink" xml:space="preserve" xmlns:serif="http://www.serif.com/" style="fill-rule:evenodd;clip-rule:evenodd;stroke-linecap:round;stroke-linejoin:round;stroke-miterlimit:1.5;"><g transform="matrix(1,0,0,1,-705,-102)"><g transform="matrix(1.115789,0,0,0.840239,-81.668559,16.41967)"><path d="M1044.535,161.87L1044.535,451.425C1044.535,484.039 1024.596,510.518 1000.036,510.518L749.819,510.518C725.259,510.518 705.319,484.039 705.319,451.425L705.319,161.87C705.319,129.255 725.259,102.777 749.819,102.777L1000.036,102.777C1024.596,102.777 1044.535,129.255 1044.535,161.87Z" style="fill:#f2ede1;"/><clipPath id="_clip1"><path d="M1044.535,161.87L1044.535,451.425C1044.535,484.039 1024.596,510.518 1000.036,510.518L749.819,510.518C725.259,510.518 705.319,484.039 705.319,451.425L705.319,161.87C705.319,129.255 725.259,102.777 749.819,102.777L1000.036,102.777C1024.596,102.777 1044.535,129.255 1044.535,161.87Z"/></clipPath><g clip-path="url(#_clip1)"><g transform="matrix(1.244918,0,0,1.190137,-180.215621,-19.541662)"><path d="M726.744,196.297C967.765,196.297 960,196.297 960,196.297" style="fill:#d8dada;"/><path d="M960,199.785L960.027,192.809L960.003,199.785L960,199.785ZM960,199.785L941.91,199.785C940.524,199.785 939.399,198.222 939.399,196.297C939.399,194.372 940.524,192.809 941.91,192.809L960.003,192.809L960,199.785ZM726.744,199.785C725.358,199.785 724.232,198.222 724.232,196.297C724.232,194.372 725.358,192.809 726.744,192.809L744.89,192.809C746.276,192.809 747.401,194.372 747.401,196.297C747.401,198.222 746.276,199.785 744.89,199.785L726.744,199.785ZM755.259,199.785C753.873,199.785 752.748,198.222 752.748,196.297C752.748,194.372 753.873,192.809 755.259,192.809L791.552,192.809C792.938,192.809 794.064,194.372 794.064,196.297C794.064,198.222 792.938,199.785 791.552,199.785L755.259,199.785ZM801.923,199.785C800.537,199.785 799.412,198.222 799.412,196.297C799.412,194.372 800.537,192.809 801.923,192.809L838.216,192.809C839.602,192.809 840.727,194.372 840.727,196.297C840.727,198.222 839.602,199.785 838.216,199.785L801.923,199.785ZM848.585,199.785C847.199,199.785 846.074,198.222 846.074,196.297C846.074,194.372 847.199,192.809 848.585,192.809L884.878,192.809C886.264,192.809 887.389,194.372 887.389,196.297C887.389,198.222 886.264,199.785 884.878,199.785L848.585,199.785ZM895.247,199.785C893.862,199.785 892.736,198.222 892.736,196.297C892.736,194.372 893.862,192.809 895.247,192.809L931.541,192.809C932.927,192.809 934.052,194.372 934.052,196.297C934.052,198.222 932.927,199.785 931.541,199.785L895.247,199.785Z" style="fill:#d8dada;"/></g><g transform="matrix(0.302401,0,0,0.60664,637.377805,-52.768243)"><path d="M418.751,602.419C430.533,606.412 438.604,614.531 438.604,623.887L460.727,672.092C460.727,685.394 444.412,696.194 424.316,696.194L327.529,696.194C307.434,696.194 291.119,685.394 291.119,672.092L313.242,623.887C313.242,614.531 321.313,606.412 333.095,602.419C333.013,601.689 332.972,600.952 332.972,600.209C332.972,584.166 352.218,571.142 375.923,571.142C399.628,571.142 418.874,584.166 418.874,600.209C418.874,600.952 418.832,601.689 418.751,602.419ZM354.456,599.785L397.389,599.785C397.058,591.959 387.566,585.675 375.923,585.675C364.28,585.675 354.788,591.959 354.456,599.785Z" style="fill:#cbc771;"/><clipPath id="_clip2"><path d="M418.751,602.419C430.533,606.412 438.604,614.531 438.604,623.887L460.727,672.092C460.727,685.394 444.412,696.194 424.316,696.194L327.529,696.194C307.434,696.194 291.119,685.394 291.119,672.092L313.242,623.887C313.242,614.531 321.313,606.412 333.095,602.419C333.013,601.689 332.972,600.952 332.972,600.209C332.972,584.166 352.218,571.142 375.923,571.142C399.628,571.142 418.874,584.166 418.874,600.209C418.874,600.952 418.832,601.689 418.751,602.419ZM354.456,599.785L397.389,599.785C397.058,591.959 387.566,585.675 375.923,585.675C364.28,585.675 354.788,591.959 354.456,599.785Z"/></clipPath><g clip-path="url(#_clip2)"><g transform="matrix(1.396691,-0,0,0.924552,-850.101801,306.654934)"><text x="842.791px" y="385.543px" style="font-family:'AlibabaPuHuiTi-Bold', 'Alibaba PuHuiTi', serif;font-weight:700;font-size:58.408px;fill:#f2ede1;">k<tspan x="875.208px " y="385.543px ">g</tspan></text></g></g></g><g transform="matrix(0.076184,-0.147015,0.102722,0.09387,755.358825,447.393083)"><path d="M169.707,-208.281C18.909,-130.026 -0.956,-138.037 -44.309,-114.997C-97.972,-86.477 -105.287,-63.427 -108.338,-27.084C-111.673,12.642 -76.002,45.141 -36.113,45.141C-16.168,45.141 8.317,38.256 30.619,12.073" style="fill:none;stroke:#7b8084;stroke-width:48.23px;"/></g></g></g></g></svg>