<?xml version="1.0" encoding="UTF-8" standalone="no"?><!DOCTYPE svg PUBLIC "-//W3C//DTD SVG 1.1//EN" "http://www.w3.org/Graphics/SVG/1.1/DTD/svg11.dtd"><svg width="100%" height="100%" viewBox="0 0 59 56" version="1.1" xmlns="http://www.w3.org/2000/svg" xmlns:xlink="http://www.w3.org/1999/xlink" xml:space="preserve" xmlns:serif="http://www.serif.com/" style="fill-rule:evenodd;clip-rule:evenodd;stroke-linejoin:round;stroke-miterlimit:2;"><g transform="matrix(1,0,0,1,-431,-151)"><g transform="matrix(1,0,0,1,-86.685115,-4.013345)"><g transform="matrix(0.37332,0,0,0.37332,467.586812,-65.310757)"><circle cx="226.36" cy="675.913" r="63.572" style="fill:#636363;fill-opacity:0.38;"/></g><g transform="matrix(0.37332,0,0,0.37332,461.144182,-69.258671)"><circle cx="226.36" cy="675.913" r="63.572" style="fill:#b58204;"/></g><g transform="matrix(0.37332,0,0,0.37332,457.144182,-73.337447)"><circle cx="226.36" cy="675.913" r="63.572" style="fill:#f9b305;"/><clipPath id="_clip1"><circle cx="226.36" cy="675.913" r="63.572"/></clipPath><g clip-path="url(#_clip1)"><g transform="matrix(0.218113,0.146164,-0.650095,0.970103,563.157276,-34.749419)"><rect x="334.086" y="571.421" width="49.379" height="188.525" style="fill:#fdf0c3;"/></g><g transform="matrix(0.605297,0.405628,-0.650095,0.970103,454.603618,-115.396678)"><rect x="334.086" y="571.421" width="49.379" height="188.525" style="fill:#fdf0c3;"/></g></g></g><g transform="matrix(0.2875,0,0,0.2875,476.570572,-15.330024)"><circle cx="226.36" cy="675.913" r="63.572" style="fill:#fce390;"/></g><g transform="matrix(0.607087,0,0,0.542692,413.110243,-189.664217)"><g transform="matrix(58.408147,0,0,58.408147,230.45003,701.773056)"></g><text x="193.478px" y="701.773px" style="font-family:'MiSans-Bold', 'MiSans';font-weight:700;font-size:58.408px;fill:#f9b305;">$</text></g></g></g></svg>