<?xml version="1.0" encoding="UTF-8" standalone="no"?><!DOCTYPE svg PUBLIC "-//W3C//DTD SVG 1.1//EN" "http://www.w3.org/Graphics/SVG/1.1/DTD/svg11.dtd"><svg width="100%" height="100%" viewBox="0 0 665 827" version="1.1" xmlns="http://www.w3.org/2000/svg" xmlns:xlink="http://www.w3.org/1999/xlink" xml:space="preserve" xmlns:serif="http://www.serif.com/" style="fill-rule:evenodd;clip-rule:evenodd;stroke-linejoin:round;stroke-miterlimit:2;"><path d="M664.376,67.611L664.376,759.472C664.376,796.658 634.185,826.849 596.998,826.849L67.604,826.849C30.418,826.849 0.227,796.658 0.227,759.472L0.227,67.611C0.227,30.424 30.418,0.234 67.604,0.234L596.998,0.234C634.185,0.234 664.376,30.424 664.376,67.611Z" style="fill:#f2ede1;"/><clipPath id="_clip1"><path d="M664.376,67.611L664.376,759.472C664.376,796.658 634.185,826.849 596.998,826.849L67.604,826.849C30.418,826.849 0.227,796.658 0.227,759.472L0.227,67.611C0.227,30.424 30.418,0.234 67.604,0.234L596.998,0.234C634.185,0.234 664.376,30.424 664.376,67.611Z"/></clipPath><g clip-path="url(#_clip1)"><rect x="-66.724" y="-84.36" width="798.05" height="212.456" style="fill:#252829;"/><g transform="matrix(46.493027,0,0,46.493027,126.961229,94.927889)"></g><text x="33.975px" y="94.928px" style="font-family:'MiSans-Bold', 'MiSans';font-weight:700;font-size:46.493px;fill:#f2ede1;">背包</text></g></svg>