<?xml version="1.0" encoding="UTF-8" standalone="no"?><!DOCTYPE svg PUBLIC "-//W3C//DTD SVG 1.1//EN" "http://www.w3.org/Graphics/SVG/1.1/DTD/svg11.dtd"><svg width="100%" height="100%" viewBox="-56.311 -72.580 911 1228" version="1.1" xmlns="http://www.w3.org/2000/svg" xmlns:xlink="http://www.w3.org/1999/xlink" xml:space="preserve" xmlns:serif="http://www.serif.com/" style="fill-rule:evenodd;clip-rule:evenodd;stroke-linejoin:round;stroke-miterlimit:2;"><g transform="matrix(1,0,0,1,108,74)"><g transform="matrix(-0.815551,-0,-0,1,1557.570494,-49.010026)"><path d="M2041.493,-24.33L2041.493,1202.35L984.685,1202.35C904.495,781.346 907.258,372.87 984.685,-24.33L2041.493,-24.33Z" style="fill:#252829;"/><clipPath id="_clip1"><path d="M2041.493,-24.33L2041.493,1202.35L984.685,1202.35C904.495,781.346 907.258,372.87 984.685,-24.33L2041.493,-24.33Z"/></clipPath><g clip-path="url(#_clip1)"><g transform="matrix(1.124811,-0.398102,0.488138,0.917341,317.801629,1034.56315)"><g transform="matrix(1,0,0,1,3,-4.046887)"><ellipse cx="1006.038" cy="251.868" rx="40.454" ry="30.172" style="fill:#252829;"/></g><g transform="matrix(1.242778,-0.012883,0.012883,1.242778,1014.700308,270.357385)"><path d="M21.273,-6.476C20.34,8.475 72.58,0 72.58,0C72.58,-40.085 40.085,-72.58 -0,-72.58C-31.1,-72.58 -56.311,-47.369 -56.311,-16.269C-56.311,7.859 -36.751,27.419 -12.623,27.419C6.097,27.419 21.273,12.243 21.273,-6.476C21.273,-21 9.499,-32.774 -5.025,-32.774C-16.293,-32.774 -25.427,-23.639 -25.427,-12.371C-25.427,-3.629 -18.34,3.458 -9.598,3.458C-2.815,3.458 2.683,-2.04 2.683,-8.823C2.683,-14.085 -1.583,-18.351 -6.845,-18.351C-10.928,-18.351 -14.237,-15.041 -14.237,-10.959C-14.237,-7.791 -11.67,-5.223 -8.502,-5.223C-6.045,-5.223 -4.053,-7.216 -4.053,-9.673" style="fill:#303335;"/></g></g><g transform="matrix(0.221606,-0.531588,0.528805,0.146624,1413.693971,1359.007139)"><path d="M1170.95,409.242L1116.655,353.359C1115.987,350.582 1115.623,347.646 1115.611,344.613C1115.553,331.177 1122.4,319.759 1132.037,315.439C1132.585,312.425 1133.219,309.452 1133.934,306.523C1127.307,296.723 1125.917,282.532 1131.307,270.932C1136.705,259.314 1147.318,253.714 1157.477,255.973C1159.157,253.746 1160.9,251.594 1162.703,249.519C1160.874,236.973 1165.409,223.868 1174.817,217.201C1184.21,210.545 1195.702,212.261 1203.638,220.445C1206.009,219.562 1208.417,218.78 1210.858,218.102C1214.356,206.202 1223.602,197.747 1234.482,197.817C1245.362,197.888 1254.68,206.463 1258.28,218.409C1260.726,219.118 1263.141,219.931 1265.52,220.846C1273.387,212.764 1284.865,211.196 1294.315,217.974C1303.78,224.763 1308.427,237.928 1306.704,250.45C1308.525,252.548 1310.286,254.724 1311.985,256.972C1322.126,254.845 1332.786,260.582 1338.284,272.271C1343.773,283.941 1342.503,298.115 1335.959,307.829C1336.699,310.768 1337.358,313.75 1337.932,316.771C1347.606,321.216 1354.55,332.723 1354.607,346.158C1354.612,347.164 1354.577,348.158 1354.506,349.138L1292.144,413.639L1292.144,421.137C1292.144,436.82 1281.814,449.553 1269.09,449.553L1257.42,449.553L1233.826,457.416L1210.115,449.553L1194.004,449.553C1181.28,449.553 1170.95,436.82 1170.95,421.137L1170.95,409.242Z" style="fill:#303335;"/><clipPath id="_clip2"><path d="M1170.95,409.242L1116.655,353.359C1115.987,350.582 1115.623,347.646 1115.611,344.613C1115.553,331.177 1122.4,319.759 1132.037,315.439C1132.585,312.425 1133.219,309.452 1133.934,306.523C1127.307,296.723 1125.917,282.532 1131.307,270.932C1136.705,259.314 1147.318,253.714 1157.477,255.973C1159.157,253.746 1160.9,251.594 1162.703,249.519C1160.874,236.973 1165.409,223.868 1174.817,217.201C1184.21,210.545 1195.702,212.261 1203.638,220.445C1206.009,219.562 1208.417,218.78 1210.858,218.102C1214.356,206.202 1223.602,197.747 1234.482,197.817C1245.362,197.888 1254.68,206.463 1258.28,218.409C1260.726,219.118 1263.141,219.931 1265.52,220.846C1273.387,212.764 1284.865,211.196 1294.315,217.974C1303.78,224.763 1308.427,237.928 1306.704,250.45C1308.525,252.548 1310.286,254.724 1311.985,256.972C1322.126,254.845 1332.786,260.582 1338.284,272.271C1343.773,283.941 1342.503,298.115 1335.959,307.829C1336.699,310.768 1337.358,313.75 1337.932,316.771C1347.606,321.216 1354.55,332.723 1354.607,346.158C1354.612,347.164 1354.577,348.158 1354.506,349.138L1292.144,413.639L1292.144,421.137C1292.144,436.82 1281.814,449.553 1269.09,449.553L1257.42,449.553L1233.826,457.416L1210.115,449.553L1194.004,449.553C1181.28,449.553 1170.95,436.82 1170.95,421.137L1170.95,409.242Z"/></clipPath><g clip-path="url(#_clip2)"><g transform="matrix(0.839171,-1.18739,1.686679,1.637893,-515.171882,1463.508194)"><path d="M1378.669,286.517L1344.571,387.222L1344.571,285.604L1378.669,286.517Z" style="fill:#252829;"/></g><g transform="matrix(1.554169,-0.648199,0.797172,2.491623,-1163.265022,384.001145)"><path d="M1378.669,286.517L1344.571,387.222L1344.571,285.604L1378.669,286.517Z" style="fill:#252829;"/></g><g transform="matrix(-0.839171,-1.18739,-1.686679,1.637893,2985.407844,1463.508194)"><path d="M1378.669,286.517L1344.571,387.222L1344.571,285.604L1378.669,286.517Z" style="fill:#252829;"/></g><g transform="matrix(-1.554169,-0.648199,-0.797172,2.491623,3633.500984,384.001145)"><path d="M1378.669,286.517L1344.571,387.222L1344.571,285.604L1378.669,286.517Z" style="fill:#252829;"/></g></g></g><g transform="matrix(1.124811,-0.398102,0.488138,0.917341,-239.362228,1231.758693)"><g transform="matrix(1,0,0,1,3,-4.046887)"><ellipse cx="1006.038" cy="251.868" rx="40.454" ry="30.172" style="fill:#252829;"/></g><g transform="matrix(1.242778,-0.012883,0.012883,1.242778,1014.700308,270.357385)"><path d="M21.273,-6.476C20.34,8.475 72.58,0 72.58,0C72.58,-40.085 40.085,-72.58 -0,-72.58C-31.1,-72.58 -56.311,-47.369 -56.311,-16.269C-56.311,7.859 -36.751,27.419 -12.623,27.419C6.097,27.419 21.273,12.243 21.273,-6.476C21.273,-21 9.499,-32.774 -5.025,-32.774C-16.293,-32.774 -25.427,-23.639 -25.427,-12.371C-25.427,-3.629 -18.34,3.458 -9.598,3.458C-2.815,3.458 2.683,-2.04 2.683,-8.823C2.683,-14.085 -1.583,-18.351 -6.845,-18.351C-10.928,-18.351 -14.237,-15.041 -14.237,-10.959C-14.237,-7.791 -11.67,-5.223 -8.502,-5.223C-6.045,-5.223 -4.053,-7.216 -4.053,-9.673" style="fill:#303335;"/></g></g><g transform="matrix(0.221606,-0.531588,0.528805,0.146624,416.943074,1471.908085)"><path d="M1170.95,409.242L1116.655,353.359C1115.987,350.582 1115.623,347.646 1115.611,344.613C1115.553,331.177 1122.4,319.759 1132.037,315.439C1132.585,312.425 1133.219,309.452 1133.934,306.523C1127.307,296.723 1125.917,282.532 1131.307,270.932C1136.705,259.314 1147.318,253.714 1157.477,255.973C1159.157,253.746 1160.9,251.594 1162.703,249.519C1160.874,236.973 1165.409,223.868 1174.817,217.201C1184.21,210.545 1195.702,212.261 1203.638,220.445C1206.009,219.562 1208.417,218.78 1210.858,218.102C1214.356,206.202 1223.602,197.747 1234.482,197.817C1245.362,197.888 1254.68,206.463 1258.28,218.409C1260.726,219.118 1263.141,219.931 1265.52,220.846C1273.387,212.764 1284.865,211.196 1294.315,217.974C1303.78,224.763 1308.427,237.928 1306.704,250.45C1308.525,252.548 1310.286,254.724 1311.985,256.972C1322.126,254.845 1332.786,260.582 1338.284,272.271C1343.773,283.941 1342.503,298.115 1335.959,307.829C1336.699,310.768 1337.358,313.75 1337.932,316.771C1347.606,321.216 1354.55,332.723 1354.607,346.158C1354.612,347.164 1354.577,348.158 1354.506,349.138L1292.144,413.639L1292.144,421.137C1292.144,436.82 1281.814,449.553 1269.09,449.553L1257.42,449.553L1233.826,457.416L1210.115,449.553L1194.004,449.553C1181.28,449.553 1170.95,436.82 1170.95,421.137L1170.95,409.242Z" style="fill:#303335;"/><clipPath id="_clip3"><path d="M1170.95,409.242L1116.655,353.359C1115.987,350.582 1115.623,347.646 1115.611,344.613C1115.553,331.177 1122.4,319.759 1132.037,315.439C1132.585,312.425 1133.219,309.452 1133.934,306.523C1127.307,296.723 1125.917,282.532 1131.307,270.932C1136.705,259.314 1147.318,253.714 1157.477,255.973C1159.157,253.746 1160.9,251.594 1162.703,249.519C1160.874,236.973 1165.409,223.868 1174.817,217.201C1184.21,210.545 1195.702,212.261 1203.638,220.445C1206.009,219.562 1208.417,218.78 1210.858,218.102C1214.356,206.202 1223.602,197.747 1234.482,197.817C1245.362,197.888 1254.68,206.463 1258.28,218.409C1260.726,219.118 1263.141,219.931 1265.52,220.846C1273.387,212.764 1284.865,211.196 1294.315,217.974C1303.78,224.763 1308.427,237.928 1306.704,250.45C1308.525,252.548 1310.286,254.724 1311.985,256.972C1322.126,254.845 1332.786,260.582 1338.284,272.271C1343.773,283.941 1342.503,298.115 1335.959,307.829C1336.699,310.768 1337.358,313.75 1337.932,316.771C1347.606,321.216 1354.55,332.723 1354.607,346.158C1354.612,347.164 1354.577,348.158 1354.506,349.138L1292.144,413.639L1292.144,421.137C1292.144,436.82 1281.814,449.553 1269.09,449.553L1257.42,449.553L1233.826,457.416L1210.115,449.553L1194.004,449.553C1181.28,449.553 1170.95,436.82 1170.95,421.137L1170.95,409.242Z"/></clipPath><g clip-path="url(#_clip3)"><g transform="matrix(0.839171,-1.18739,1.686679,1.637893,-515.171882,1463.508194)"><path d="M1378.669,286.517L1344.571,387.222L1344.571,285.604L1378.669,286.517Z" style="fill:#252829;"/></g><g transform="matrix(1.554169,-0.648199,0.797172,2.491623,-1163.265022,384.001145)"><path d="M1378.669,286.517L1344.571,387.222L1344.571,285.604L1378.669,286.517Z" style="fill:#252829;"/></g><g transform="matrix(-0.839171,-1.18739,-1.686679,1.637893,2985.407844,1463.508194)"><path d="M1378.669,286.517L1344.571,387.222L1344.571,285.604L1378.669,286.517Z" style="fill:#252829;"/></g><g transform="matrix(-1.554169,-0.648199,-0.797172,2.491623,3633.500984,384.001145)"><path d="M1378.669,286.517L1344.571,387.222L1344.571,285.604L1378.669,286.517Z" style="fill:#252829;"/></g></g></g><g transform="matrix(1.124811,-0.398102,0.488138,0.917341,552.955267,471.58287)"><g transform="matrix(1,0,0,1,3,-4.046887)"><ellipse cx="1006.038" cy="251.868" rx="40.454" ry="30.172" style="fill:#252829;"/></g><g transform="matrix(1.242778,-0.012883,0.012883,1.242778,1014.700308,270.357385)"><path d="M21.273,-6.476C20.34,8.475 72.58,0 72.58,0C72.58,-40.085 40.085,-72.58 -0,-72.58C-31.1,-72.58 -56.311,-47.369 -56.311,-16.269C-56.311,7.859 -36.751,27.419 -12.623,27.419C6.097,27.419 21.273,12.243 21.273,-6.476C21.273,-21 9.499,-32.774 -5.025,-32.774C-16.293,-32.774 -25.427,-23.639 -25.427,-12.371C-25.427,-3.629 -18.34,3.458 -9.598,3.458C-2.815,3.458 2.683,-2.04 2.683,-8.823C2.683,-14.085 -1.583,-18.351 -6.845,-18.351C-10.928,-18.351 -14.237,-15.041 -14.237,-10.959C-14.237,-7.791 -11.67,-5.223 -8.502,-5.223C-6.045,-5.223 -4.053,-7.216 -4.053,-9.673" style="fill:#303335;"/></g></g><g transform="matrix(1.391603,-0.50657,0.621138,1.134923,829.522451,428.540093)"><path d="M21.273,-6.476C20.34,8.475 72.58,0 72.58,0C72.58,-40.085 40.085,-72.58 -0,-72.58C-31.1,-72.58 -56.311,-47.369 -56.311,-16.269C-56.311,7.859 -36.751,27.419 -12.623,27.419C6.097,27.419 21.273,12.243 21.273,-6.476C21.273,-21 9.499,-32.774 -5.025,-32.774C-16.293,-32.774 -25.427,-23.639 -25.427,-12.371C-25.427,-3.629 -18.34,3.458 -9.598,3.458C-2.815,3.458 2.683,-2.04 2.683,-8.823C2.683,-14.085 -1.583,-18.351 -6.845,-18.351C-10.928,-18.351 -14.237,-15.041 -14.237,-10.959C-14.237,-7.791 -11.67,-5.223 -8.502,-5.223C-6.045,-5.223 -4.053,-7.216 -4.053,-9.673" style="fill:#303335;"/></g><g transform="matrix(0.221606,-0.531588,0.528805,0.146624,652.096711,908.927804)"><path d="M1170.95,409.242L1116.655,353.359C1115.987,350.582 1115.623,347.646 1115.611,344.613C1115.553,331.177 1122.4,319.759 1132.037,315.439C1132.585,312.425 1133.219,309.452 1133.934,306.523C1127.307,296.723 1125.917,282.532 1131.307,270.932C1136.705,259.314 1147.318,253.714 1157.477,255.973C1159.157,253.746 1160.9,251.594 1162.703,249.519C1160.874,236.973 1165.409,223.868 1174.817,217.201C1184.21,210.545 1195.702,212.261 1203.638,220.445C1206.009,219.562 1208.417,218.78 1210.858,218.102C1214.356,206.202 1223.602,197.747 1234.482,197.817C1245.362,197.888 1254.68,206.463 1258.28,218.409C1260.726,219.118 1263.141,219.931 1265.52,220.846C1273.387,212.764 1284.865,211.196 1294.315,217.974C1303.78,224.763 1308.427,237.928 1306.704,250.45C1308.525,252.548 1310.286,254.724 1311.985,256.972C1322.126,254.845 1332.786,260.582 1338.284,272.271C1343.773,283.941 1342.503,298.115 1335.959,307.829C1336.699,310.768 1337.358,313.75 1337.932,316.771C1347.606,321.216 1354.55,332.723 1354.607,346.158C1354.612,347.164 1354.577,348.158 1354.506,349.138L1292.144,413.639L1292.144,421.137C1292.144,436.82 1281.814,449.553 1269.09,449.553L1257.42,449.553L1233.826,457.416L1210.115,449.553L1194.004,449.553C1181.28,449.553 1170.95,436.82 1170.95,421.137L1170.95,409.242Z" style="fill:#303335;"/><clipPath id="_clip4"><path d="M1170.95,409.242L1116.655,353.359C1115.987,350.582 1115.623,347.646 1115.611,344.613C1115.553,331.177 1122.4,319.759 1132.037,315.439C1132.585,312.425 1133.219,309.452 1133.934,306.523C1127.307,296.723 1125.917,282.532 1131.307,270.932C1136.705,259.314 1147.318,253.714 1157.477,255.973C1159.157,253.746 1160.9,251.594 1162.703,249.519C1160.874,236.973 1165.409,223.868 1174.817,217.201C1184.21,210.545 1195.702,212.261 1203.638,220.445C1206.009,219.562 1208.417,218.78 1210.858,218.102C1214.356,206.202 1223.602,197.747 1234.482,197.817C1245.362,197.888 1254.68,206.463 1258.28,218.409C1260.726,219.118 1263.141,219.931 1265.52,220.846C1273.387,212.764 1284.865,211.196 1294.315,217.974C1303.78,224.763 1308.427,237.928 1306.704,250.45C1308.525,252.548 1310.286,254.724 1311.985,256.972C1322.126,254.845 1332.786,260.582 1338.284,272.271C1343.773,283.941 1342.503,298.115 1335.959,307.829C1336.699,310.768 1337.358,313.75 1337.932,316.771C1347.606,321.216 1354.55,332.723 1354.607,346.158C1354.612,347.164 1354.577,348.158 1354.506,349.138L1292.144,413.639L1292.144,421.137C1292.144,436.82 1281.814,449.553 1269.09,449.553L1257.42,449.553L1233.826,457.416L1210.115,449.553L1194.004,449.553C1181.28,449.553 1170.95,436.82 1170.95,421.137L1170.95,409.242Z"/></clipPath><g clip-path="url(#_clip4)"><g transform="matrix(0.839171,-1.18739,1.686679,1.637893,-515.171882,1463.508194)"><path d="M1378.669,286.517L1344.571,387.222L1344.571,285.604L1378.669,286.517Z" style="fill:#252829;"/></g><g transform="matrix(1.554169,-0.648199,0.797172,2.491623,-1163.265022,384.001145)"><path d="M1378.669,286.517L1344.571,387.222L1344.571,285.604L1378.669,286.517Z" style="fill:#252829;"/></g><g transform="matrix(-0.839171,-1.18739,-1.686679,1.637893,2985.407844,1463.508194)"><path d="M1378.669,286.517L1344.571,387.222L1344.571,285.604L1378.669,286.517Z" style="fill:#252829;"/></g><g transform="matrix(-1.554169,-0.648199,-0.797172,2.491623,3633.500984,384.001145)"><path d="M1378.669,286.517L1344.571,387.222L1344.571,285.604L1378.669,286.517Z" style="fill:#252829;"/></g></g></g><g transform="matrix(1.124811,-0.398102,0.488138,0.917341,230.945046,105.798132)"><g transform="matrix(1,0,0,1,3,-4.046887)"><ellipse cx="1006.038" cy="251.868" rx="40.454" ry="30.172" style="fill:#252829;"/></g><g transform="matrix(1.242778,-0.012883,0.012883,1.242778,1014.700308,270.357385)"><path d="M21.273,-6.476C20.34,8.475 72.58,0 72.58,0C72.58,-40.085 40.085,-72.58 -0,-72.58C-31.1,-72.58 -56.311,-47.369 -56.311,-16.269C-56.311,7.859 -36.751,27.419 -12.623,27.419C6.097,27.419 21.273,12.243 21.273,-6.476C21.273,-21 9.499,-32.774 -5.025,-32.774C-16.293,-32.774 -25.427,-23.639 -25.427,-12.371C-25.427,-3.629 -18.34,3.458 -9.598,3.458C-2.815,3.458 2.683,-2.04 2.683,-8.823C2.683,-14.085 -1.583,-18.351 -6.845,-18.351C-10.928,-18.351 -14.237,-15.041 -14.237,-10.959C-14.237,-7.791 -11.67,-5.223 -8.502,-5.223C-6.045,-5.223 -4.053,-7.216 -4.053,-9.673" style="fill:#303335;"/></g></g><g transform="matrix(0.221606,-0.531588,0.528805,0.146624,1648.847608,796.026859)"><path d="M1170.95,409.242L1116.655,353.359C1115.987,350.582 1115.623,347.646 1115.611,344.613C1115.553,331.177 1122.4,319.759 1132.037,315.439C1132.585,312.425 1133.219,309.452 1133.934,306.523C1127.307,296.723 1125.917,282.532 1131.307,270.932C1136.705,259.314 1147.318,253.714 1157.477,255.973C1159.157,253.746 1160.9,251.594 1162.703,249.519C1160.874,236.973 1165.409,223.868 1174.817,217.201C1184.21,210.545 1195.702,212.261 1203.638,220.445C1206.009,219.562 1208.417,218.78 1210.858,218.102C1214.356,206.202 1223.602,197.747 1234.482,197.817C1245.362,197.888 1254.68,206.463 1258.28,218.409C1260.726,219.118 1263.141,219.931 1265.52,220.846C1273.387,212.764 1284.865,211.196 1294.315,217.974C1303.78,224.763 1308.427,237.928 1306.704,250.45C1308.525,252.548 1310.286,254.724 1311.985,256.972C1322.126,254.845 1332.786,260.582 1338.284,272.271C1343.773,283.941 1342.503,298.115 1335.959,307.829C1336.699,310.768 1337.358,313.75 1337.932,316.771C1347.606,321.216 1354.55,332.723 1354.607,346.158C1354.612,347.164 1354.577,348.158 1354.506,349.138L1292.144,413.639L1292.144,421.137C1292.144,436.82 1281.814,449.553 1269.09,449.553L1257.42,449.553L1233.826,457.416L1210.115,449.553L1194.004,449.553C1181.28,449.553 1170.95,436.82 1170.95,421.137L1170.95,409.242Z" style="fill:#303335;"/><clipPath id="_clip5"><path d="M1170.95,409.242L1116.655,353.359C1115.987,350.582 1115.623,347.646 1115.611,344.613C1115.553,331.177 1122.4,319.759 1132.037,315.439C1132.585,312.425 1133.219,309.452 1133.934,306.523C1127.307,296.723 1125.917,282.532 1131.307,270.932C1136.705,259.314 1147.318,253.714 1157.477,255.973C1159.157,253.746 1160.9,251.594 1162.703,249.519C1160.874,236.973 1165.409,223.868 1174.817,217.201C1184.21,210.545 1195.702,212.261 1203.638,220.445C1206.009,219.562 1208.417,218.78 1210.858,218.102C1214.356,206.202 1223.602,197.747 1234.482,197.817C1245.362,197.888 1254.68,206.463 1258.28,218.409C1260.726,219.118 1263.141,219.931 1265.52,220.846C1273.387,212.764 1284.865,211.196 1294.315,217.974C1303.78,224.763 1308.427,237.928 1306.704,250.45C1308.525,252.548 1310.286,254.724 1311.985,256.972C1322.126,254.845 1332.786,260.582 1338.284,272.271C1343.773,283.941 1342.503,298.115 1335.959,307.829C1336.699,310.768 1337.358,313.75 1337.932,316.771C1347.606,321.216 1354.55,332.723 1354.607,346.158C1354.612,347.164 1354.577,348.158 1354.506,349.138L1292.144,413.639L1292.144,421.137C1292.144,436.82 1281.814,449.553 1269.09,449.553L1257.42,449.553L1233.826,457.416L1210.115,449.553L1194.004,449.553C1181.28,449.553 1170.95,436.82 1170.95,421.137L1170.95,409.242Z"/></clipPath><g clip-path="url(#_clip5)"><g transform="matrix(1.554169,-0.648199,0.797172,2.491623,-1163.265022,384.001145)"><path d="M1378.669,286.517L1344.571,387.222L1344.571,285.604L1378.669,286.517Z" style="fill:#252829;"/></g><g transform="matrix(-1.554169,-0.648199,-0.797172,2.491623,3633.500984,384.001145)"><path d="M1378.669,286.517L1344.571,387.222L1344.571,285.604L1378.669,286.517Z" style="fill:#252829;"/></g></g></g><g transform="matrix(1.124811,-0.398102,0.488138,0.917341,-4.208591,668.778413)"><g transform="matrix(1,0,0,1,3,-4.046887)"><ellipse cx="1006.038" cy="251.868" rx="40.454" ry="30.172" style="fill:#252829;"/></g><g transform="matrix(1.242778,-0.012883,0.012883,1.242778,1014.700308,270.357385)"><path d="M21.273,-6.476C20.34,8.475 72.58,0 72.58,0C72.58,-40.085 40.085,-72.58 -0,-72.58C-31.1,-72.58 -56.311,-47.369 -56.311,-16.269C-56.311,7.859 -36.751,27.419 -12.623,27.419C6.097,27.419 21.273,12.243 21.273,-6.476C21.273,-21 9.499,-32.774 -5.025,-32.774C-16.293,-32.774 -25.427,-23.639 -25.427,-12.371C-25.427,-3.629 -18.34,3.458 -9.598,3.458C-2.815,3.458 2.683,-2.04 2.683,-8.823C2.683,-14.085 -1.583,-18.351 -6.845,-18.351C-10.928,-18.351 -14.237,-15.041 -14.237,-10.959C-14.237,-7.791 -11.67,-5.223 -8.502,-5.223C-6.045,-5.223 -4.053,-7.216 -4.053,-9.673" style="fill:#303335;"/></g></g><g transform="matrix(0.221606,-0.531588,0.528805,0.146624,1091.68375,993.222402)"><path d="M1170.95,409.242L1116.655,353.359C1115.987,350.582 1115.623,347.646 1115.611,344.613C1115.553,331.177 1122.4,319.759 1132.037,315.439C1132.585,312.425 1133.219,309.452 1133.934,306.523C1127.307,296.723 1125.917,282.532 1131.307,270.932C1136.705,259.314 1147.318,253.714 1157.477,255.973C1159.157,253.746 1160.9,251.594 1162.703,249.519C1160.874,236.973 1165.409,223.868 1174.817,217.201C1184.21,210.545 1195.702,212.261 1203.638,220.445C1206.009,219.562 1208.417,218.78 1210.858,218.102C1214.356,206.202 1223.602,197.747 1234.482,197.817C1245.362,197.888 1254.68,206.463 1258.28,218.409C1260.726,219.118 1263.141,219.931 1265.52,220.846C1273.387,212.764 1284.865,211.196 1294.315,217.974C1303.78,224.763 1308.427,237.928 1306.704,250.45C1308.525,252.548 1310.286,254.724 1311.985,256.972C1322.126,254.845 1332.786,260.582 1338.284,272.271C1343.773,283.941 1342.503,298.115 1335.959,307.829C1336.699,310.768 1337.358,313.75 1337.932,316.771C1347.606,321.216 1354.55,332.723 1354.607,346.158C1354.612,347.164 1354.577,348.158 1354.506,349.138L1292.144,413.639L1292.144,421.137C1292.144,436.82 1281.814,449.553 1269.09,449.553L1257.42,449.553L1233.826,457.416L1210.115,449.553L1194.004,449.553C1181.28,449.553 1170.95,436.82 1170.95,421.137L1170.95,409.242Z" style="fill:#303335;"/><clipPath id="_clip6"><path d="M1170.95,409.242L1116.655,353.359C1115.987,350.582 1115.623,347.646 1115.611,344.613C1115.553,331.177 1122.4,319.759 1132.037,315.439C1132.585,312.425 1133.219,309.452 1133.934,306.523C1127.307,296.723 1125.917,282.532 1131.307,270.932C1136.705,259.314 1147.318,253.714 1157.477,255.973C1159.157,253.746 1160.9,251.594 1162.703,249.519C1160.874,236.973 1165.409,223.868 1174.817,217.201C1184.21,210.545 1195.702,212.261 1203.638,220.445C1206.009,219.562 1208.417,218.78 1210.858,218.102C1214.356,206.202 1223.602,197.747 1234.482,197.817C1245.362,197.888 1254.68,206.463 1258.28,218.409C1260.726,219.118 1263.141,219.931 1265.52,220.846C1273.387,212.764 1284.865,211.196 1294.315,217.974C1303.78,224.763 1308.427,237.928 1306.704,250.45C1308.525,252.548 1310.286,254.724 1311.985,256.972C1322.126,254.845 1332.786,260.582 1338.284,272.271C1343.773,283.941 1342.503,298.115 1335.959,307.829C1336.699,310.768 1337.358,313.75 1337.932,316.771C1347.606,321.216 1354.55,332.723 1354.607,346.158C1354.612,347.164 1354.577,348.158 1354.506,349.138L1292.144,413.639L1292.144,421.137C1292.144,436.82 1281.814,449.553 1269.09,449.553L1257.42,449.553L1233.826,457.416L1210.115,449.553L1194.004,449.553C1181.28,449.553 1170.95,436.82 1170.95,421.137L1170.95,409.242Z"/></clipPath><g clip-path="url(#_clip6)"><g transform="matrix(0.839171,-1.18739,1.686679,1.637893,-515.171882,1463.508194)"><path d="M1378.669,286.517L1344.571,387.222L1344.571,285.604L1378.669,286.517Z" style="fill:#252829;"/></g><g transform="matrix(1.554169,-0.648199,0.797172,2.491623,-1163.265022,384.001145)"><path d="M1378.669,286.517L1344.571,387.222L1344.571,285.604L1378.669,286.517Z" style="fill:#252829;"/></g><g transform="matrix(-0.839171,-1.18739,-1.686679,1.637893,2985.407844,1463.508194)"><path d="M1378.669,286.517L1344.571,387.222L1344.571,285.604L1378.669,286.517Z" style="fill:#252829;"/></g><g transform="matrix(-1.554169,-0.648199,-0.797172,2.491623,3633.500984,384.001145)"><path d="M1378.669,286.517L1344.571,387.222L1344.571,285.604L1378.669,286.517Z" style="fill:#252829;"/></g></g></g><g transform="matrix(0.221606,-0.531588,0.528805,0.146624,738.953294,1837.692822)"><path d="M1170.95,409.242L1116.655,353.359C1115.987,350.582 1115.623,347.646 1115.611,344.613C1115.553,331.177 1122.4,319.759 1132.037,315.439C1132.585,312.425 1133.219,309.452 1133.934,306.523C1127.307,296.723 1125.917,282.532 1131.307,270.932C1136.705,259.314 1147.318,253.714 1157.477,255.973C1159.157,253.746 1160.9,251.594 1162.703,249.519C1160.874,236.973 1165.409,223.868 1174.817,217.201C1184.21,210.545 1195.702,212.261 1203.638,220.445C1206.009,219.562 1208.417,218.78 1210.858,218.102C1214.356,206.202 1223.602,197.747 1234.482,197.817C1245.362,197.888 1254.68,206.463 1258.28,218.409C1260.726,219.118 1263.141,219.931 1265.52,220.846C1273.387,212.764 1284.865,211.196 1294.315,217.974C1303.78,224.763 1308.427,237.928 1306.704,250.45C1308.525,252.548 1310.286,254.724 1311.985,256.972C1322.126,254.845 1332.786,260.582 1338.284,272.271C1343.773,283.941 1342.503,298.115 1335.959,307.829C1336.699,310.768 1337.358,313.75 1337.932,316.771C1347.606,321.216 1354.55,332.723 1354.607,346.158C1354.612,347.164 1354.577,348.158 1354.506,349.138L1292.144,413.639L1292.144,421.137C1292.144,436.82 1281.814,449.553 1269.09,449.553L1257.42,449.553L1233.826,457.416L1210.115,449.553L1194.004,449.553C1181.28,449.553 1170.95,436.82 1170.95,421.137L1170.95,409.242Z" style="fill:#303335;"/><clipPath id="_clip7"><path d="M1170.95,409.242L1116.655,353.359C1115.987,350.582 1115.623,347.646 1115.611,344.613C1115.553,331.177 1122.4,319.759 1132.037,315.439C1132.585,312.425 1133.219,309.452 1133.934,306.523C1127.307,296.723 1125.917,282.532 1131.307,270.932C1136.705,259.314 1147.318,253.714 1157.477,255.973C1159.157,253.746 1160.9,251.594 1162.703,249.519C1160.874,236.973 1165.409,223.868 1174.817,217.201C1184.21,210.545 1195.702,212.261 1203.638,220.445C1206.009,219.562 1208.417,218.78 1210.858,218.102C1214.356,206.202 1223.602,197.747 1234.482,197.817C1245.362,197.888 1254.68,206.463 1258.28,218.409C1260.726,219.118 1263.141,219.931 1265.52,220.846C1273.387,212.764 1284.865,211.196 1294.315,217.974C1303.78,224.763 1308.427,237.928 1306.704,250.45C1308.525,252.548 1310.286,254.724 1311.985,256.972C1322.126,254.845 1332.786,260.582 1338.284,272.271C1343.773,283.941 1342.503,298.115 1335.959,307.829C1336.699,310.768 1337.358,313.75 1337.932,316.771C1347.606,321.216 1354.55,332.723 1354.607,346.158C1354.612,347.164 1354.577,348.158 1354.506,349.138L1292.144,413.639L1292.144,421.137C1292.144,436.82 1281.814,449.553 1269.09,449.553L1257.42,449.553L1233.826,457.416L1210.115,449.553L1194.004,449.553C1181.28,449.553 1170.95,436.82 1170.95,421.137L1170.95,409.242Z"/></clipPath><g clip-path="url(#_clip7)"><g transform="matrix(-0.839171,-1.18739,-1.686679,1.637893,2985.407844,1463.508194)"><path d="M1378.669,286.517L1344.571,387.222L1344.571,285.604L1378.669,286.517Z" style="fill:#252829;"/></g><g transform="matrix(-1.554169,-0.648199,-0.797172,2.491623,3633.500984,384.001145)"><path d="M1378.669,286.517L1344.571,387.222L1344.571,285.604L1378.669,286.517Z" style="fill:#252829;"/></g></g></g><g transform="matrix(0.221606,-0.531588,0.528805,0.146624,856.530113,1556.202682)"><path d="M1170.95,409.242L1116.655,353.359C1115.987,350.582 1115.623,347.646 1115.611,344.613C1115.553,331.177 1122.4,319.759 1132.037,315.439C1132.585,312.425 1133.219,309.452 1133.934,306.523C1127.307,296.723 1125.917,282.532 1131.307,270.932C1136.705,259.314 1147.318,253.714 1157.477,255.973C1159.157,253.746 1160.9,251.594 1162.703,249.519C1160.874,236.973 1165.409,223.868 1174.817,217.201C1184.21,210.545 1195.702,212.261 1203.638,220.445C1206.009,219.562 1208.417,218.78 1210.858,218.102C1214.356,206.202 1223.602,197.747 1234.482,197.817C1245.362,197.888 1254.68,206.463 1258.28,218.409C1260.726,219.118 1263.141,219.931 1265.52,220.846C1273.387,212.764 1284.865,211.196 1294.315,217.974C1303.78,224.763 1308.427,237.928 1306.704,250.45C1308.525,252.548 1310.286,254.724 1311.985,256.972C1322.126,254.845 1332.786,260.582 1338.284,272.271C1343.773,283.941 1342.503,298.115 1335.959,307.829C1336.699,310.768 1337.358,313.75 1337.932,316.771C1347.606,321.216 1354.55,332.723 1354.607,346.158C1354.612,347.164 1354.577,348.158 1354.506,349.138L1292.144,413.639L1292.144,421.137C1292.144,436.82 1281.814,449.553 1269.09,449.553L1257.42,449.553L1233.826,457.416L1210.115,449.553L1194.004,449.553C1181.28,449.553 1170.95,436.82 1170.95,421.137L1170.95,409.242Z" style="fill:#303335;"/><clipPath id="_clip8"><path d="M1170.95,409.242L1116.655,353.359C1115.987,350.582 1115.623,347.646 1115.611,344.613C1115.553,331.177 1122.4,319.759 1132.037,315.439C1132.585,312.425 1133.219,309.452 1133.934,306.523C1127.307,296.723 1125.917,282.532 1131.307,270.932C1136.705,259.314 1147.318,253.714 1157.477,255.973C1159.157,253.746 1160.9,251.594 1162.703,249.519C1160.874,236.973 1165.409,223.868 1174.817,217.201C1184.21,210.545 1195.702,212.261 1203.638,220.445C1206.009,219.562 1208.417,218.78 1210.858,218.102C1214.356,206.202 1223.602,197.747 1234.482,197.817C1245.362,197.888 1254.68,206.463 1258.28,218.409C1260.726,219.118 1263.141,219.931 1265.52,220.846C1273.387,212.764 1284.865,211.196 1294.315,217.974C1303.78,224.763 1308.427,237.928 1306.704,250.45C1308.525,252.548 1310.286,254.724 1311.985,256.972C1322.126,254.845 1332.786,260.582 1338.284,272.271C1343.773,283.941 1342.503,298.115 1335.959,307.829C1336.699,310.768 1337.358,313.75 1337.932,316.771C1347.606,321.216 1354.55,332.723 1354.607,346.158C1354.612,347.164 1354.577,348.158 1354.506,349.138L1292.144,413.639L1292.144,421.137C1292.144,436.82 1281.814,449.553 1269.09,449.553L1257.42,449.553L1233.826,457.416L1210.115,449.553L1194.004,449.553C1181.28,449.553 1170.95,436.82 1170.95,421.137L1170.95,409.242Z"/></clipPath><g clip-path="url(#_clip8)"><g transform="matrix(0.839171,-1.18739,1.686679,1.637893,-515.171882,1463.508194)"><path d="M1378.669,286.517L1344.571,387.222L1344.571,285.604L1378.669,286.517Z" style="fill:#252829;"/></g><g transform="matrix(1.554169,-0.648199,0.797172,2.491623,-1163.265022,384.001145)"><path d="M1378.669,286.517L1344.571,387.222L1344.571,285.604L1378.669,286.517Z" style="fill:#252829;"/></g><g transform="matrix(-0.839171,-1.18739,-1.686679,1.637893,2985.407844,1463.508194)"><path d="M1378.669,286.517L1344.571,387.222L1344.571,285.604L1378.669,286.517Z" style="fill:#252829;"/></g><g transform="matrix(-1.554169,-0.648199,-0.797172,2.491623,3633.500984,384.001145)"><path d="M1378.669,286.517L1344.571,387.222L1344.571,285.604L1378.669,286.517Z" style="fill:#252829;"/></g></g></g><g transform="matrix(1.124811,-0.398102,0.488138,0.917341,-326.218812,302.993675)"><g transform="matrix(1,0,0,1,3,-4.046887)"><ellipse cx="1006.038" cy="251.868" rx="40.454" ry="30.172" style="fill:#252829;"/></g><g transform="matrix(1.242778,-0.012883,0.012883,1.242778,1014.700308,270.357385)"><path d="M21.273,-6.476C20.34,8.475 72.58,0 72.58,0C72.58,-40.085 40.085,-72.58 -0,-72.58C-31.1,-72.58 -56.311,-47.369 -56.311,-16.269C-56.311,7.859 -36.751,27.419 -12.623,27.419C6.097,27.419 21.273,12.243 21.273,-6.476C21.273,-21 9.499,-32.774 -5.025,-32.774C-16.293,-32.774 -25.427,-23.639 -25.427,-12.371C-25.427,-3.629 -18.34,3.458 -9.598,3.458C-2.815,3.458 2.683,-2.04 2.683,-8.823C2.683,-14.085 -1.583,-18.351 -6.845,-18.351C-10.928,-18.351 -14.237,-15.041 -14.237,-10.959C-14.237,-7.791 -11.67,-5.223 -8.502,-5.223C-6.045,-5.223 -4.053,-7.216 -4.053,-9.673" style="fill:#303335;"/></g></g><g transform="matrix(0.221606,-0.531588,0.528805,0.146624,769.67353,627.437664)"><path d="M1170.95,409.242L1116.655,353.359C1115.987,350.582 1115.623,347.646 1115.611,344.613C1115.553,331.177 1122.4,319.759 1132.037,315.439C1132.585,312.425 1133.219,309.452 1133.934,306.523C1127.307,296.723 1125.917,282.532 1131.307,270.932C1136.705,259.314 1147.318,253.714 1157.477,255.973C1159.157,253.746 1160.9,251.594 1162.703,249.519C1160.874,236.973 1165.409,223.868 1174.817,217.201C1184.21,210.545 1195.702,212.261 1203.638,220.445C1206.009,219.562 1208.417,218.78 1210.858,218.102C1214.356,206.202 1223.602,197.747 1234.482,197.817C1245.362,197.888 1254.68,206.463 1258.28,218.409C1260.726,219.118 1263.141,219.931 1265.52,220.846C1273.387,212.764 1284.865,211.196 1294.315,217.974C1303.78,224.763 1308.427,237.928 1306.704,250.45C1308.525,252.548 1310.286,254.724 1311.985,256.972C1322.126,254.845 1332.786,260.582 1338.284,272.271C1343.773,283.941 1342.503,298.115 1335.959,307.829C1336.699,310.768 1337.358,313.75 1337.932,316.771C1347.606,321.216 1354.55,332.723 1354.607,346.158C1354.612,347.164 1354.577,348.158 1354.506,349.138L1292.144,413.639L1292.144,421.137C1292.144,436.82 1281.814,449.553 1269.09,449.553L1257.42,449.553L1233.826,457.416L1210.115,449.553L1194.004,449.553C1181.28,449.553 1170.95,436.82 1170.95,421.137L1170.95,409.242Z" style="fill:#303335;"/><clipPath id="_clip9"><path d="M1170.95,409.242L1116.655,353.359C1115.987,350.582 1115.623,347.646 1115.611,344.613C1115.553,331.177 1122.4,319.759 1132.037,315.439C1132.585,312.425 1133.219,309.452 1133.934,306.523C1127.307,296.723 1125.917,282.532 1131.307,270.932C1136.705,259.314 1147.318,253.714 1157.477,255.973C1159.157,253.746 1160.9,251.594 1162.703,249.519C1160.874,236.973 1165.409,223.868 1174.817,217.201C1184.21,210.545 1195.702,212.261 1203.638,220.445C1206.009,219.562 1208.417,218.78 1210.858,218.102C1214.356,206.202 1223.602,197.747 1234.482,197.817C1245.362,197.888 1254.68,206.463 1258.28,218.409C1260.726,219.118 1263.141,219.931 1265.52,220.846C1273.387,212.764 1284.865,211.196 1294.315,217.974C1303.78,224.763 1308.427,237.928 1306.704,250.45C1308.525,252.548 1310.286,254.724 1311.985,256.972C1322.126,254.845 1332.786,260.582 1338.284,272.271C1343.773,283.941 1342.503,298.115 1335.959,307.829C1336.699,310.768 1337.358,313.75 1337.932,316.771C1347.606,321.216 1354.55,332.723 1354.607,346.158C1354.612,347.164 1354.577,348.158 1354.506,349.138L1292.144,413.639L1292.144,421.137C1292.144,436.82 1281.814,449.553 1269.09,449.553L1257.42,449.553L1233.826,457.416L1210.115,449.553L1194.004,449.553C1181.28,449.553 1170.95,436.82 1170.95,421.137L1170.95,409.242Z"/></clipPath><g clip-path="url(#_clip9)"><g transform="matrix(0.839171,-1.18739,1.686679,1.637893,-515.171882,1463.508194)"><path d="M1378.669,286.517L1344.571,387.222L1344.571,285.604L1378.669,286.517Z" style="fill:#252829;"/></g><g transform="matrix(1.554169,-0.648199,0.797172,2.491623,-1163.265022,384.001145)"><path d="M1378.669,286.517L1344.571,387.222L1344.571,285.604L1378.669,286.517Z" style="fill:#252829;"/></g><g transform="matrix(-0.839171,-1.18739,-1.686679,1.637893,2985.407844,1463.508194)"><path d="M1378.669,286.517L1344.571,387.222L1344.571,285.604L1378.669,286.517Z" style="fill:#252829;"/></g><g transform="matrix(-1.554169,-0.648199,-0.797172,2.491623,3633.500984,384.001145)"><path d="M1378.669,286.517L1344.571,387.222L1344.571,285.604L1378.669,286.517Z" style="fill:#252829;"/></g></g></g><g transform="matrix(0.221606,-0.531588,0.528805,0.146624,1296.117152,1640.49728)"><path d="M1170.95,409.242L1116.655,353.359C1115.987,350.582 1115.623,347.646 1115.611,344.613C1115.553,331.177 1122.4,319.759 1132.037,315.439C1132.585,312.425 1133.219,309.452 1133.934,306.523C1127.307,296.723 1125.917,282.532 1131.307,270.932C1136.705,259.314 1147.318,253.714 1157.477,255.973C1159.157,253.746 1160.9,251.594 1162.703,249.519C1160.874,236.973 1165.409,223.868 1174.817,217.201C1184.21,210.545 1195.702,212.261 1203.638,220.445C1206.009,219.562 1208.417,218.78 1210.858,218.102C1214.356,206.202 1223.602,197.747 1234.482,197.817C1245.362,197.888 1254.68,206.463 1258.28,218.409C1260.726,219.118 1263.141,219.931 1265.52,220.846C1273.387,212.764 1284.865,211.196 1294.315,217.974C1303.78,224.763 1308.427,237.928 1306.704,250.45C1308.525,252.548 1310.286,254.724 1311.985,256.972C1322.126,254.845 1332.786,260.582 1338.284,272.271C1343.773,283.941 1342.503,298.115 1335.959,307.829C1336.699,310.768 1337.358,313.75 1337.932,316.771C1347.606,321.216 1354.55,332.723 1354.607,346.158C1354.612,347.164 1354.577,348.158 1354.506,349.138L1292.144,413.639L1292.144,421.137C1292.144,436.82 1281.814,449.553 1269.09,449.553L1257.42,449.553L1233.826,457.416L1210.115,449.553L1194.004,449.553C1181.28,449.553 1170.95,436.82 1170.95,421.137L1170.95,409.242Z" style="fill:#303335;"/><clipPath id="_clip10"><path d="M1170.95,409.242L1116.655,353.359C1115.987,350.582 1115.623,347.646 1115.611,344.613C1115.553,331.177 1122.4,319.759 1132.037,315.439C1132.585,312.425 1133.219,309.452 1133.934,306.523C1127.307,296.723 1125.917,282.532 1131.307,270.932C1136.705,259.314 1147.318,253.714 1157.477,255.973C1159.157,253.746 1160.9,251.594 1162.703,249.519C1160.874,236.973 1165.409,223.868 1174.817,217.201C1184.21,210.545 1195.702,212.261 1203.638,220.445C1206.009,219.562 1208.417,218.78 1210.858,218.102C1214.356,206.202 1223.602,197.747 1234.482,197.817C1245.362,197.888 1254.68,206.463 1258.28,218.409C1260.726,219.118 1263.141,219.931 1265.52,220.846C1273.387,212.764 1284.865,211.196 1294.315,217.974C1303.78,224.763 1308.427,237.928 1306.704,250.45C1308.525,252.548 1310.286,254.724 1311.985,256.972C1322.126,254.845 1332.786,260.582 1338.284,272.271C1343.773,283.941 1342.503,298.115 1335.959,307.829C1336.699,310.768 1337.358,313.75 1337.932,316.771C1347.606,321.216 1354.55,332.723 1354.607,346.158C1354.612,347.164 1354.577,348.158 1354.506,349.138L1292.144,413.639L1292.144,421.137C1292.144,436.82 1281.814,449.553 1269.09,449.553L1257.42,449.553L1233.826,457.416L1210.115,449.553L1194.004,449.553C1181.28,449.553 1170.95,436.82 1170.95,421.137L1170.95,409.242Z"/></clipPath><g clip-path="url(#_clip10)"><g transform="matrix(0.839171,-1.18739,1.686679,1.637893,-515.171882,1463.508194)"><path d="M1378.669,286.517L1344.571,387.222L1344.571,285.604L1378.669,286.517Z" style="fill:#252829;"/></g><g transform="matrix(1.554169,-0.648199,0.797172,2.491623,-1163.265022,384.001145)"><path d="M1378.669,286.517L1344.571,387.222L1344.571,285.604L1378.669,286.517Z" style="fill:#252829;"/></g><g transform="matrix(-0.839171,-1.18739,-1.686679,1.637893,2985.407844,1463.508194)"><path d="M1378.669,286.517L1344.571,387.222L1344.571,285.604L1378.669,286.517Z" style="fill:#252829;"/></g><g transform="matrix(-1.554169,-0.648199,-0.797172,2.491623,3633.500984,384.001145)"><path d="M1378.669,286.517L1344.571,387.222L1344.571,285.604L1378.669,286.517Z" style="fill:#252829;"/></g></g></g><g transform="matrix(1.124811,-0.398102,0.488138,0.917341,435.378448,753.07301)"><g transform="matrix(1,0,0,1,3,-4.046887)"><ellipse cx="1006.038" cy="251.868" rx="40.454" ry="30.172" style="fill:#252829;"/></g><g transform="matrix(1.242778,-0.012883,0.012883,1.242778,1014.700308,270.357385)"><path d="M21.273,-6.476C20.34,8.475 72.58,0 72.58,0C72.58,-40.085 40.085,-72.58 -0,-72.58C-31.1,-72.58 -56.311,-47.369 -56.311,-16.269C-56.311,7.859 -36.751,27.419 -12.623,27.419C6.097,27.419 21.273,12.243 21.273,-6.476C21.273,-21 9.499,-32.774 -5.025,-32.774C-16.293,-32.774 -25.427,-23.639 -25.427,-12.371C-25.427,-3.629 -18.34,3.458 -9.598,3.458C-2.815,3.458 2.683,-2.04 2.683,-8.823C2.683,-14.085 -1.583,-18.351 -6.845,-18.351C-10.928,-18.351 -14.237,-15.041 -14.237,-10.959C-14.237,-7.791 -11.67,-5.223 -8.502,-5.223C-6.045,-5.223 -4.053,-7.216 -4.053,-9.673" style="fill:#303335;"/></g></g><g transform="matrix(0.221606,-0.531588,0.528805,0.146624,1531.270789,1077.516999)"><path d="M1170.95,409.242L1116.655,353.359C1115.987,350.582 1115.623,347.646 1115.611,344.613C1115.553,331.177 1122.4,319.759 1132.037,315.439C1132.585,312.425 1133.219,309.452 1133.934,306.523C1127.307,296.723 1125.917,282.532 1131.307,270.932C1136.705,259.314 1147.318,253.714 1157.477,255.973C1159.157,253.746 1160.9,251.594 1162.703,249.519C1160.874,236.973 1165.409,223.868 1174.817,217.201C1184.21,210.545 1195.702,212.261 1203.638,220.445C1206.009,219.562 1208.417,218.78 1210.858,218.102C1214.356,206.202 1223.602,197.747 1234.482,197.817C1245.362,197.888 1254.68,206.463 1258.28,218.409C1260.726,219.118 1263.141,219.931 1265.52,220.846C1273.387,212.764 1284.865,211.196 1294.315,217.974C1303.78,224.763 1308.427,237.928 1306.704,250.45C1308.525,252.548 1310.286,254.724 1311.985,256.972C1322.126,254.845 1332.786,260.582 1338.284,272.271C1343.773,283.941 1342.503,298.115 1335.959,307.829C1336.699,310.768 1337.358,313.75 1337.932,316.771C1347.606,321.216 1354.55,332.723 1354.607,346.158C1354.612,347.164 1354.577,348.158 1354.506,349.138L1292.144,413.639L1292.144,421.137C1292.144,436.82 1281.814,449.553 1269.09,449.553L1257.42,449.553L1233.826,457.416L1210.115,449.553L1194.004,449.553C1181.28,449.553 1170.95,436.82 1170.95,421.137L1170.95,409.242Z" style="fill:#303335;"/><clipPath id="_clip11"><path d="M1170.95,409.242L1116.655,353.359C1115.987,350.582 1115.623,347.646 1115.611,344.613C1115.553,331.177 1122.4,319.759 1132.037,315.439C1132.585,312.425 1133.219,309.452 1133.934,306.523C1127.307,296.723 1125.917,282.532 1131.307,270.932C1136.705,259.314 1147.318,253.714 1157.477,255.973C1159.157,253.746 1160.9,251.594 1162.703,249.519C1160.874,236.973 1165.409,223.868 1174.817,217.201C1184.21,210.545 1195.702,212.261 1203.638,220.445C1206.009,219.562 1208.417,218.78 1210.858,218.102C1214.356,206.202 1223.602,197.747 1234.482,197.817C1245.362,197.888 1254.68,206.463 1258.28,218.409C1260.726,219.118 1263.141,219.931 1265.52,220.846C1273.387,212.764 1284.865,211.196 1294.315,217.974C1303.78,224.763 1308.427,237.928 1306.704,250.45C1308.525,252.548 1310.286,254.724 1311.985,256.972C1322.126,254.845 1332.786,260.582 1338.284,272.271C1343.773,283.941 1342.503,298.115 1335.959,307.829C1336.699,310.768 1337.358,313.75 1337.932,316.771C1347.606,321.216 1354.55,332.723 1354.607,346.158C1354.612,347.164 1354.577,348.158 1354.506,349.138L1292.144,413.639L1292.144,421.137C1292.144,436.82 1281.814,449.553 1269.09,449.553L1257.42,449.553L1233.826,457.416L1210.115,449.553L1194.004,449.553C1181.28,449.553 1170.95,436.82 1170.95,421.137L1170.95,409.242Z"/></clipPath><g clip-path="url(#_clip11)"><g transform="matrix(0.839171,-1.18739,1.686679,1.637893,-515.171882,1463.508194)"><path d="M1378.669,286.517L1344.571,387.222L1344.571,285.604L1378.669,286.517Z" style="fill:#252829;"/></g><g transform="matrix(1.554169,-0.648199,0.797172,2.491623,-1163.265022,384.001145)"><path d="M1378.669,286.517L1344.571,387.222L1344.571,285.604L1378.669,286.517Z" style="fill:#252829;"/></g><g transform="matrix(-0.839171,-1.18739,-1.686679,1.637893,2985.407844,1463.508194)"><path d="M1378.669,286.517L1344.571,387.222L1344.571,285.604L1378.669,286.517Z" style="fill:#252829;"/></g><g transform="matrix(-1.554169,-0.648199,-0.797172,2.491623,3633.500984,384.001145)"><path d="M1378.669,286.517L1344.571,387.222L1344.571,285.604L1378.669,286.517Z" style="fill:#252829;"/></g></g></g><g transform="matrix(1.124811,-0.398102,0.488138,0.917341,-121.78541,950.268553)"><g transform="matrix(1,0,0,1,3,-4.046887)"><ellipse cx="1006.038" cy="251.868" rx="40.454" ry="30.172" style="fill:#252829;"/></g><g transform="matrix(1.242778,-0.012883,0.012883,1.242778,1014.700308,270.357385)"><path d="M21.273,-6.476C20.34,8.475 72.58,0 72.58,0C72.58,-40.085 40.085,-72.58 -0,-72.58C-31.1,-72.58 -56.311,-47.369 -56.311,-16.269C-56.311,7.859 -36.751,27.419 -12.623,27.419C6.097,27.419 21.273,12.243 21.273,-6.476C21.273,-21 9.499,-32.774 -5.025,-32.774C-16.293,-32.774 -25.427,-23.639 -25.427,-12.371C-25.427,-3.629 -18.34,3.458 -9.598,3.458C-2.815,3.458 2.683,-2.04 2.683,-8.823C2.683,-14.085 -1.583,-18.351 -6.845,-18.351C-10.928,-18.351 -14.237,-15.041 -14.237,-10.959C-14.237,-7.791 -11.67,-5.223 -8.502,-5.223C-6.045,-5.223 -4.053,-7.216 -4.053,-9.673" style="fill:#303335;"/></g></g><g transform="matrix(0.221606,-0.531588,0.528805,0.146624,974.106932,1274.712542)"><path d="M1170.95,409.242L1116.655,353.359C1115.987,350.582 1115.623,347.646 1115.611,344.613C1115.553,331.177 1122.4,319.759 1132.037,315.439C1132.585,312.425 1133.219,309.452 1133.934,306.523C1127.307,296.723 1125.917,282.532 1131.307,270.932C1136.705,259.314 1147.318,253.714 1157.477,255.973C1159.157,253.746 1160.9,251.594 1162.703,249.519C1160.874,236.973 1165.409,223.868 1174.817,217.201C1184.21,210.545 1195.702,212.261 1203.638,220.445C1206.009,219.562 1208.417,218.78 1210.858,218.102C1214.356,206.202 1223.602,197.747 1234.482,197.817C1245.362,197.888 1254.68,206.463 1258.28,218.409C1260.726,219.118 1263.141,219.931 1265.52,220.846C1273.387,212.764 1284.865,211.196 1294.315,217.974C1303.78,224.763 1308.427,237.928 1306.704,250.45C1308.525,252.548 1310.286,254.724 1311.985,256.972C1322.126,254.845 1332.786,260.582 1338.284,272.271C1343.773,283.941 1342.503,298.115 1335.959,307.829C1336.699,310.768 1337.358,313.75 1337.932,316.771C1347.606,321.216 1354.55,332.723 1354.607,346.158C1354.612,347.164 1354.577,348.158 1354.506,349.138L1292.144,413.639L1292.144,421.137C1292.144,436.82 1281.814,449.553 1269.09,449.553L1257.42,449.553L1233.826,457.416L1210.115,449.553L1194.004,449.553C1181.28,449.553 1170.95,436.82 1170.95,421.137L1170.95,409.242Z" style="fill:#303335;"/><clipPath id="_clip12"><path d="M1170.95,409.242L1116.655,353.359C1115.987,350.582 1115.623,347.646 1115.611,344.613C1115.553,331.177 1122.4,319.759 1132.037,315.439C1132.585,312.425 1133.219,309.452 1133.934,306.523C1127.307,296.723 1125.917,282.532 1131.307,270.932C1136.705,259.314 1147.318,253.714 1157.477,255.973C1159.157,253.746 1160.9,251.594 1162.703,249.519C1160.874,236.973 1165.409,223.868 1174.817,217.201C1184.21,210.545 1195.702,212.261 1203.638,220.445C1206.009,219.562 1208.417,218.78 1210.858,218.102C1214.356,206.202 1223.602,197.747 1234.482,197.817C1245.362,197.888 1254.68,206.463 1258.28,218.409C1260.726,219.118 1263.141,219.931 1265.52,220.846C1273.387,212.764 1284.865,211.196 1294.315,217.974C1303.78,224.763 1308.427,237.928 1306.704,250.45C1308.525,252.548 1310.286,254.724 1311.985,256.972C1322.126,254.845 1332.786,260.582 1338.284,272.271C1343.773,283.941 1342.503,298.115 1335.959,307.829C1336.699,310.768 1337.358,313.75 1337.932,316.771C1347.606,321.216 1354.55,332.723 1354.607,346.158C1354.612,347.164 1354.577,348.158 1354.506,349.138L1292.144,413.639L1292.144,421.137C1292.144,436.82 1281.814,449.553 1269.09,449.553L1257.42,449.553L1233.826,457.416L1210.115,449.553L1194.004,449.553C1181.28,449.553 1170.95,436.82 1170.95,421.137L1170.95,409.242Z"/></clipPath><g clip-path="url(#_clip12)"><g transform="matrix(0.839171,-1.18739,1.686679,1.637893,-515.171882,1463.508194)"><path d="M1378.669,286.517L1344.571,387.222L1344.571,285.604L1378.669,286.517Z" style="fill:#252829;"/></g><g transform="matrix(1.554169,-0.648199,0.797172,2.491623,-1163.265022,384.001145)"><path d="M1378.669,286.517L1344.571,387.222L1344.571,285.604L1378.669,286.517Z" style="fill:#252829;"/></g><g transform="matrix(-0.839171,-1.18739,-1.686679,1.637893,2985.407844,1463.508194)"><path d="M1378.669,286.517L1344.571,387.222L1344.571,285.604L1378.669,286.517Z" style="fill:#252829;"/></g><g transform="matrix(-1.554169,-0.648199,-0.797172,2.491623,3633.500984,384.001145)"><path d="M1378.669,286.517L1344.571,387.222L1344.571,285.604L1378.669,286.517Z" style="fill:#252829;"/></g></g></g><g transform="matrix(0.221606,-0.531588,0.528805,0.146624,534.519892,1190.417945)"><path d="M1170.95,409.242L1116.655,353.359C1115.987,350.582 1115.623,347.646 1115.611,344.613C1115.553,331.177 1122.4,319.759 1132.037,315.439C1132.585,312.425 1133.219,309.452 1133.934,306.523C1127.307,296.723 1125.917,282.532 1131.307,270.932C1136.705,259.314 1147.318,253.714 1157.477,255.973C1159.157,253.746 1160.9,251.594 1162.703,249.519C1160.874,236.973 1165.409,223.868 1174.817,217.201C1184.21,210.545 1195.702,212.261 1203.638,220.445C1206.009,219.562 1208.417,218.78 1210.858,218.102C1214.356,206.202 1223.602,197.747 1234.482,197.817C1245.362,197.888 1254.68,206.463 1258.28,218.409C1260.726,219.118 1263.141,219.931 1265.52,220.846C1273.387,212.764 1284.865,211.196 1294.315,217.974C1303.78,224.763 1308.427,237.928 1306.704,250.45C1308.525,252.548 1310.286,254.724 1311.985,256.972C1322.126,254.845 1332.786,260.582 1338.284,272.271C1343.773,283.941 1342.503,298.115 1335.959,307.829C1336.699,310.768 1337.358,313.75 1337.932,316.771C1347.606,321.216 1354.55,332.723 1354.607,346.158C1354.612,347.164 1354.577,348.158 1354.506,349.138L1292.144,413.639L1292.144,421.137C1292.144,436.82 1281.814,449.553 1269.09,449.553L1257.42,449.553L1233.826,457.416L1210.115,449.553L1194.004,449.553C1181.28,449.553 1170.95,436.82 1170.95,421.137L1170.95,409.242Z" style="fill:#303335;"/><clipPath id="_clip13"><path d="M1170.95,409.242L1116.655,353.359C1115.987,350.582 1115.623,347.646 1115.611,344.613C1115.553,331.177 1122.4,319.759 1132.037,315.439C1132.585,312.425 1133.219,309.452 1133.934,306.523C1127.307,296.723 1125.917,282.532 1131.307,270.932C1136.705,259.314 1147.318,253.714 1157.477,255.973C1159.157,253.746 1160.9,251.594 1162.703,249.519C1160.874,236.973 1165.409,223.868 1174.817,217.201C1184.21,210.545 1195.702,212.261 1203.638,220.445C1206.009,219.562 1208.417,218.78 1210.858,218.102C1214.356,206.202 1223.602,197.747 1234.482,197.817C1245.362,197.888 1254.68,206.463 1258.28,218.409C1260.726,219.118 1263.141,219.931 1265.52,220.846C1273.387,212.764 1284.865,211.196 1294.315,217.974C1303.78,224.763 1308.427,237.928 1306.704,250.45C1308.525,252.548 1310.286,254.724 1311.985,256.972C1322.126,254.845 1332.786,260.582 1338.284,272.271C1343.773,283.941 1342.503,298.115 1335.959,307.829C1336.699,310.768 1337.358,313.75 1337.932,316.771C1347.606,321.216 1354.55,332.723 1354.607,346.158C1354.612,347.164 1354.577,348.158 1354.506,349.138L1292.144,413.639L1292.144,421.137C1292.144,436.82 1281.814,449.553 1269.09,449.553L1257.42,449.553L1233.826,457.416L1210.115,449.553L1194.004,449.553C1181.28,449.553 1170.95,436.82 1170.95,421.137L1170.95,409.242Z"/></clipPath><g clip-path="url(#_clip13)"><g transform="matrix(0.839171,-1.18739,1.686679,1.637893,-515.171882,1463.508194)"><path d="M1378.669,286.517L1344.571,387.222L1344.571,285.604L1378.669,286.517Z" style="fill:#252829;"/></g><g transform="matrix(1.554169,-0.648199,0.797172,2.491623,-1163.265022,384.001145)"><path d="M1378.669,286.517L1344.571,387.222L1344.571,285.604L1378.669,286.517Z" style="fill:#252829;"/></g><g transform="matrix(-0.839171,-1.18739,-1.686679,1.637893,2985.407844,1463.508194)"><path d="M1378.669,286.517L1344.571,387.222L1344.571,285.604L1378.669,286.517Z" style="fill:#252829;"/></g><g transform="matrix(-1.554169,-0.648199,-0.797172,2.491623,3633.500984,384.001145)"><path d="M1378.669,286.517L1344.571,387.222L1344.571,285.604L1378.669,286.517Z" style="fill:#252829;"/></g></g></g><g transform="matrix(1.124811,-0.398102,0.488138,0.917341,670.532085,190.09273)"><g transform="matrix(1,0,0,1,3,-4.046887)"><ellipse cx="1006.038" cy="251.868" rx="40.454" ry="30.172" style="fill:#252829;"/></g><g transform="matrix(1.242778,-0.012883,0.012883,1.242778,1014.700308,270.357385)"><path d="M21.273,-6.476C20.34,8.475 72.58,0 72.58,0C72.58,-40.085 40.085,-72.58 -0,-72.58C-31.1,-72.58 -56.311,-47.369 -56.311,-16.269C-56.311,7.859 -36.751,27.419 -12.623,27.419C6.097,27.419 21.273,12.243 21.273,-6.476C21.273,-21 9.499,-32.774 -5.025,-32.774C-16.293,-32.774 -25.427,-23.639 -25.427,-12.371C-25.427,-3.629 -18.34,3.458 -9.598,3.458C-2.815,3.458 2.683,-2.04 2.683,-8.823C2.683,-14.085 -1.583,-18.351 -6.845,-18.351C-10.928,-18.351 -14.237,-15.041 -14.237,-10.959C-14.237,-7.791 -11.67,-5.223 -8.502,-5.223C-6.045,-5.223 -4.053,-7.216 -4.053,-9.673" style="fill:#303335;"/></g></g><g transform="matrix(1.124811,-0.398102,0.488138,0.917341,113.368228,387.288272)"><g transform="matrix(1,0,0,1,3,-4.046887)"><ellipse cx="1006.038" cy="251.868" rx="40.454" ry="30.172" style="fill:#252829;"/></g><g transform="matrix(1.242778,-0.012883,0.012883,1.242778,1014.700308,270.357385)"><path d="M21.273,-6.476C20.34,8.475 72.58,0 72.58,0C72.58,-40.085 40.085,-72.58 -0,-72.58C-31.1,-72.58 -56.311,-47.369 -56.311,-16.269C-56.311,7.859 -36.751,27.419 -12.623,27.419C6.097,27.419 21.273,12.243 21.273,-6.476C21.273,-21 9.499,-32.774 -5.025,-32.774C-16.293,-32.774 -25.427,-23.639 -25.427,-12.371C-25.427,-3.629 -18.34,3.458 -9.598,3.458C-2.815,3.458 2.683,-2.04 2.683,-8.823C2.683,-14.085 -1.583,-18.351 -6.845,-18.351C-10.928,-18.351 -14.237,-15.041 -14.237,-10.959C-14.237,-7.791 -11.67,-5.223 -8.502,-5.223C-6.045,-5.223 -4.053,-7.216 -4.053,-9.673" style="fill:#303335;"/></g></g><g transform="matrix(0.221606,-0.531588,0.528805,0.146624,1209.260569,711.732261)"><path d="M1170.95,409.242L1116.655,353.359C1115.987,350.582 1115.623,347.646 1115.611,344.613C1115.553,331.177 1122.4,319.759 1132.037,315.439C1132.585,312.425 1133.219,309.452 1133.934,306.523C1127.307,296.723 1125.917,282.532 1131.307,270.932C1136.705,259.314 1147.318,253.714 1157.477,255.973C1159.157,253.746 1160.9,251.594 1162.703,249.519C1160.874,236.973 1165.409,223.868 1174.817,217.201C1184.21,210.545 1195.702,212.261 1203.638,220.445C1206.009,219.562 1208.417,218.78 1210.858,218.102C1214.356,206.202 1223.602,197.747 1234.482,197.817C1245.362,197.888 1254.68,206.463 1258.28,218.409C1260.726,219.118 1263.141,219.931 1265.52,220.846C1273.387,212.764 1284.865,211.196 1294.315,217.974C1303.78,224.763 1308.427,237.928 1306.704,250.45C1308.525,252.548 1310.286,254.724 1311.985,256.972C1322.126,254.845 1332.786,260.582 1338.284,272.271C1343.773,283.941 1342.503,298.115 1335.959,307.829C1336.699,310.768 1337.358,313.75 1337.932,316.771C1347.606,321.216 1354.55,332.723 1354.607,346.158C1354.612,347.164 1354.577,348.158 1354.506,349.138L1292.144,413.639L1292.144,421.137C1292.144,436.82 1281.814,449.553 1269.09,449.553L1257.42,449.553L1233.826,457.416L1210.115,449.553L1194.004,449.553C1181.28,449.553 1170.95,436.82 1170.95,421.137L1170.95,409.242Z" style="fill:#303335;"/><clipPath id="_clip14"><path d="M1170.95,409.242L1116.655,353.359C1115.987,350.582 1115.623,347.646 1115.611,344.613C1115.553,331.177 1122.4,319.759 1132.037,315.439C1132.585,312.425 1133.219,309.452 1133.934,306.523C1127.307,296.723 1125.917,282.532 1131.307,270.932C1136.705,259.314 1147.318,253.714 1157.477,255.973C1159.157,253.746 1160.9,251.594 1162.703,249.519C1160.874,236.973 1165.409,223.868 1174.817,217.201C1184.21,210.545 1195.702,212.261 1203.638,220.445C1206.009,219.562 1208.417,218.78 1210.858,218.102C1214.356,206.202 1223.602,197.747 1234.482,197.817C1245.362,197.888 1254.68,206.463 1258.28,218.409C1260.726,219.118 1263.141,219.931 1265.52,220.846C1273.387,212.764 1284.865,211.196 1294.315,217.974C1303.78,224.763 1308.427,237.928 1306.704,250.45C1308.525,252.548 1310.286,254.724 1311.985,256.972C1322.126,254.845 1332.786,260.582 1338.284,272.271C1343.773,283.941 1342.503,298.115 1335.959,307.829C1336.699,310.768 1337.358,313.75 1337.932,316.771C1347.606,321.216 1354.55,332.723 1354.607,346.158C1354.612,347.164 1354.577,348.158 1354.506,349.138L1292.144,413.639L1292.144,421.137C1292.144,436.82 1281.814,449.553 1269.09,449.553L1257.42,449.553L1233.826,457.416L1210.115,449.553L1194.004,449.553C1181.28,449.553 1170.95,436.82 1170.95,421.137L1170.95,409.242Z"/></clipPath><g clip-path="url(#_clip14)"><g transform="matrix(0.839171,-1.18739,1.686679,1.637893,-515.171882,1463.508194)"><path d="M1378.669,286.517L1344.571,387.222L1344.571,285.604L1378.669,286.517Z" style="fill:#252829;"/></g><g transform="matrix(1.554169,-0.648199,0.797172,2.491623,-1163.265022,384.001145)"><path d="M1378.669,286.517L1344.571,387.222L1344.571,285.604L1378.669,286.517Z" style="fill:#252829;"/></g><g transform="matrix(-0.839171,-1.18739,-1.686679,1.637893,2985.407844,1463.508194)"><path d="M1378.669,286.517L1344.571,387.222L1344.571,285.604L1378.669,286.517Z" style="fill:#252829;"/></g><g transform="matrix(-1.554169,-0.648199,-0.797172,2.491623,3633.500984,384.001145)"><path d="M1378.669,286.517L1344.571,387.222L1344.571,285.604L1378.669,286.517Z" style="fill:#252829;"/></g></g></g><g transform="matrix(1.124811,-0.398102,0.488138,0.917341,200.224811,1316.053291)"><g transform="matrix(1,0,0,1,3,-4.046887)"><ellipse cx="1006.038" cy="251.868" rx="40.454" ry="30.172" style="fill:#252829;"/></g><g transform="matrix(1.242778,-0.012883,0.012883,1.242778,1014.700308,270.357385)"><path d="M21.273,-6.476C20.34,8.475 72.58,0 72.58,0C72.58,-40.085 40.085,-72.58 -0,-72.58C-31.1,-72.58 -56.311,-47.369 -56.311,-16.269C-56.311,7.859 -36.751,27.419 -12.623,27.419C6.097,27.419 21.273,12.243 21.273,-6.476C21.273,-21 9.499,-32.774 -5.025,-32.774C-16.293,-32.774 -25.427,-23.639 -25.427,-12.371C-25.427,-3.629 -18.34,3.458 -9.598,3.458C-2.815,3.458 2.683,-2.04 2.683,-8.823C2.683,-14.085 -1.583,-18.351 -6.845,-18.351C-10.928,-18.351 -14.237,-15.041 -14.237,-10.959C-14.237,-7.791 -11.67,-5.223 -8.502,-5.223C-6.045,-5.223 -4.053,-7.216 -4.053,-9.673" style="fill:#303335;"/></g></g><g transform="matrix(0.221606,-0.531588,0.528805,0.146624,1296.117152,1640.49728)"><path d="M1170.95,409.242L1116.655,353.359C1115.987,350.582 1115.623,347.646 1115.611,344.613C1115.553,331.177 1122.4,319.759 1132.037,315.439C1132.585,312.425 1133.219,309.452 1133.934,306.523C1127.307,296.723 1125.917,282.532 1131.307,270.932C1136.705,259.314 1147.318,253.714 1157.477,255.973C1159.157,253.746 1160.9,251.594 1162.703,249.519C1160.874,236.973 1165.409,223.868 1174.817,217.201C1184.21,210.545 1195.702,212.261 1203.638,220.445C1206.009,219.562 1208.417,218.78 1210.858,218.102C1214.356,206.202 1223.602,197.747 1234.482,197.817C1245.362,197.888 1254.68,206.463 1258.28,218.409C1260.726,219.118 1263.141,219.931 1265.52,220.846C1273.387,212.764 1284.865,211.196 1294.315,217.974C1303.78,224.763 1308.427,237.928 1306.704,250.45C1308.525,252.548 1310.286,254.724 1311.985,256.972C1322.126,254.845 1332.786,260.582 1338.284,272.271C1343.773,283.941 1342.503,298.115 1335.959,307.829C1336.699,310.768 1337.358,313.75 1337.932,316.771C1347.606,321.216 1354.55,332.723 1354.607,346.158C1354.612,347.164 1354.577,348.158 1354.506,349.138L1292.144,413.639L1292.144,421.137C1292.144,436.82 1281.814,449.553 1269.09,449.553L1257.42,449.553L1233.826,457.416L1210.115,449.553L1194.004,449.553C1181.28,449.553 1170.95,436.82 1170.95,421.137L1170.95,409.242Z" style="fill:#303335;"/><clipPath id="_clip15"><path d="M1170.95,409.242L1116.655,353.359C1115.987,350.582 1115.623,347.646 1115.611,344.613C1115.553,331.177 1122.4,319.759 1132.037,315.439C1132.585,312.425 1133.219,309.452 1133.934,306.523C1127.307,296.723 1125.917,282.532 1131.307,270.932C1136.705,259.314 1147.318,253.714 1157.477,255.973C1159.157,253.746 1160.9,251.594 1162.703,249.519C1160.874,236.973 1165.409,223.868 1174.817,217.201C1184.21,210.545 1195.702,212.261 1203.638,220.445C1206.009,219.562 1208.417,218.78 1210.858,218.102C1214.356,206.202 1223.602,197.747 1234.482,197.817C1245.362,197.888 1254.68,206.463 1258.28,218.409C1260.726,219.118 1263.141,219.931 1265.52,220.846C1273.387,212.764 1284.865,211.196 1294.315,217.974C1303.78,224.763 1308.427,237.928 1306.704,250.45C1308.525,252.548 1310.286,254.724 1311.985,256.972C1322.126,254.845 1332.786,260.582 1338.284,272.271C1343.773,283.941 1342.503,298.115 1335.959,307.829C1336.699,310.768 1337.358,313.75 1337.932,316.771C1347.606,321.216 1354.55,332.723 1354.607,346.158C1354.612,347.164 1354.577,348.158 1354.506,349.138L1292.144,413.639L1292.144,421.137C1292.144,436.82 1281.814,449.553 1269.09,449.553L1257.42,449.553L1233.826,457.416L1210.115,449.553L1194.004,449.553C1181.28,449.553 1170.95,436.82 1170.95,421.137L1170.95,409.242Z"/></clipPath><g clip-path="url(#_clip15)"><g transform="matrix(0.839171,-1.18739,1.686679,1.637893,-515.171882,1463.508194)"><path d="M1378.669,286.517L1344.571,387.222L1344.571,285.604L1378.669,286.517Z" style="fill:#252829;"/></g><g transform="matrix(1.554169,-0.648199,0.797172,2.491623,-1163.265022,384.001145)"><path d="M1378.669,286.517L1344.571,387.222L1344.571,285.604L1378.669,286.517Z" style="fill:#252829;"/></g><g transform="matrix(-0.839171,-1.18739,-1.686679,1.637893,2985.407844,1463.508194)"><path d="M1378.669,286.517L1344.571,387.222L1344.571,285.604L1378.669,286.517Z" style="fill:#252829;"/></g><g transform="matrix(-1.554169,-0.648199,-0.797172,2.491623,3633.500984,384.001145)"><path d="M1378.669,286.517L1344.571,387.222L1344.571,285.604L1378.669,286.517Z" style="fill:#252829;"/></g></g></g><g transform="matrix(0.221606,-0.531588,0.528805,0.146624,738.953294,1837.692822)"><path d="M1170.95,409.242L1116.655,353.359C1115.987,350.582 1115.623,347.646 1115.611,344.613C1115.553,331.177 1122.4,319.759 1132.037,315.439C1132.585,312.425 1133.219,309.452 1133.934,306.523C1127.307,296.723 1125.917,282.532 1131.307,270.932C1136.705,259.314 1147.318,253.714 1157.477,255.973C1159.157,253.746 1160.9,251.594 1162.703,249.519C1160.874,236.973 1165.409,223.868 1174.817,217.201C1184.21,210.545 1195.702,212.261 1203.638,220.445C1206.009,219.562 1208.417,218.78 1210.858,218.102C1214.356,206.202 1223.602,197.747 1234.482,197.817C1245.362,197.888 1254.68,206.463 1258.28,218.409C1260.726,219.118 1263.141,219.931 1265.52,220.846C1273.387,212.764 1284.865,211.196 1294.315,217.974C1303.78,224.763 1308.427,237.928 1306.704,250.45C1308.525,252.548 1310.286,254.724 1311.985,256.972C1322.126,254.845 1332.786,260.582 1338.284,272.271C1343.773,283.941 1342.503,298.115 1335.959,307.829C1336.699,310.768 1337.358,313.75 1337.932,316.771C1347.606,321.216 1354.55,332.723 1354.607,346.158C1354.612,347.164 1354.577,348.158 1354.506,349.138L1292.144,413.639L1292.144,421.137C1292.144,436.82 1281.814,449.553 1269.09,449.553L1257.42,449.553L1233.826,457.416L1210.115,449.553L1194.004,449.553C1181.28,449.553 1170.95,436.82 1170.95,421.137L1170.95,409.242Z" style="fill:#303335;"/><clipPath id="_clip16"><path d="M1170.95,409.242L1116.655,353.359C1115.987,350.582 1115.623,347.646 1115.611,344.613C1115.553,331.177 1122.4,319.759 1132.037,315.439C1132.585,312.425 1133.219,309.452 1133.934,306.523C1127.307,296.723 1125.917,282.532 1131.307,270.932C1136.705,259.314 1147.318,253.714 1157.477,255.973C1159.157,253.746 1160.9,251.594 1162.703,249.519C1160.874,236.973 1165.409,223.868 1174.817,217.201C1184.21,210.545 1195.702,212.261 1203.638,220.445C1206.009,219.562 1208.417,218.78 1210.858,218.102C1214.356,206.202 1223.602,197.747 1234.482,197.817C1245.362,197.888 1254.68,206.463 1258.28,218.409C1260.726,219.118 1263.141,219.931 1265.52,220.846C1273.387,212.764 1284.865,211.196 1294.315,217.974C1303.78,224.763 1308.427,237.928 1306.704,250.45C1308.525,252.548 1310.286,254.724 1311.985,256.972C1322.126,254.845 1332.786,260.582 1338.284,272.271C1343.773,283.941 1342.503,298.115 1335.959,307.829C1336.699,310.768 1337.358,313.75 1337.932,316.771C1347.606,321.216 1354.55,332.723 1354.607,346.158C1354.612,347.164 1354.577,348.158 1354.506,349.138L1292.144,413.639L1292.144,421.137C1292.144,436.82 1281.814,449.553 1269.09,449.553L1257.42,449.553L1233.826,457.416L1210.115,449.553L1194.004,449.553C1181.28,449.553 1170.95,436.82 1170.95,421.137L1170.95,409.242Z"/></clipPath><g clip-path="url(#_clip16)"><g transform="matrix(-0.839171,-1.18739,-1.686679,1.637893,2985.407844,1463.508194)"><path d="M1378.669,286.517L1344.571,387.222L1344.571,285.604L1378.669,286.517Z" style="fill:#252829;"/></g><g transform="matrix(-1.554169,-0.648199,-0.797172,2.491623,3633.500984,384.001145)"><path d="M1378.669,286.517L1344.571,387.222L1344.571,285.604L1378.669,286.517Z" style="fill:#252829;"/></g></g></g><g transform="matrix(1.124811,-0.398102,0.488138,0.917341,200.224811,1316.053291)"><g transform="matrix(1,0,0,1,3,-4.046887)"><ellipse cx="1006.038" cy="251.868" rx="40.454" ry="30.172" style="fill:#252829;"/></g><g transform="matrix(1.242778,-0.012883,0.012883,1.242778,1014.700308,270.357385)"><path d="M21.273,-6.476C20.34,8.475 72.58,0 72.58,0C72.58,-40.085 40.085,-72.58 -0,-72.58C-31.1,-72.58 -56.311,-47.369 -56.311,-16.269C-56.311,7.859 -36.751,27.419 -12.623,27.419C6.097,27.419 21.273,12.243 21.273,-6.476C21.273,-21 9.499,-32.774 -5.025,-32.774C-16.293,-32.774 -25.427,-23.639 -25.427,-12.371C-25.427,-3.629 -18.34,3.458 -9.598,3.458C-2.815,3.458 2.683,-2.04 2.683,-8.823C2.683,-14.085 -1.583,-18.351 -6.845,-18.351C-10.928,-18.351 -14.237,-15.041 -14.237,-10.959C-14.237,-7.791 -11.67,-5.223 -8.502,-5.223C-6.045,-5.223 -4.053,-7.216 -4.053,-9.673" style="fill:#303335;"/></g></g></g></g></g></svg>