<?xml version="1.0" encoding="UTF-8" standalone="no"?><!DOCTYPE svg PUBLIC "-//W3C//DTD SVG 1.1//EN" "http://www.w3.org/Graphics/SVG/1.1/DTD/svg11.dtd"><svg width="100%" height="100%" viewBox="0 0 911 1228" version="1.1" xmlns="http://www.w3.org/2000/svg" xmlns:xlink="http://www.w3.org/1999/xlink" xml:space="preserve" xmlns:serif="http://www.serif.com/" style="fill-rule:evenodd;clip-rule:evenodd;stroke-linejoin:round;stroke-miterlimit:2;"><path d="M0.628,0.66L0.628,1227.34L862.509,1227.34C927.909,806.336 925.655,397.86 862.509,0.66L0.628,0.66Z" style="fill:#252829;"/><clipPath id="_clip1"><path d="M0.628,0.66L0.628,1227.34L862.509,1227.34C927.909,806.336 925.655,397.86 862.509,0.66L0.628,0.66Z"/></clipPath><g clip-path="url(#_clip1)"><g><path d="M394.108,857.511C373.627,848.623 351.616,853.809 344.986,869.085C338.357,884.361 349.603,903.98 370.085,912.868C390.567,921.757 412.577,916.571 419.207,901.295C425.836,886.019 414.59,866.4 394.108,857.511Z" style="fill:#252829;"/><path d="M347.069,885.483C340.553,902.924 285.558,866.842 285.558,866.842C305.864,821.349 359.204,800.931 404.698,821.236C439.993,836.991 455.835,878.375 440.081,913.67C427.858,941.054 395.751,953.344 368.367,941.122C347.121,931.639 337.586,906.729 347.069,885.483C354.426,869 373.752,861.602 390.235,868.959C403.024,874.667 408.763,889.661 403.055,902.45C398.627,912.371 386.994,916.825 377.072,912.396C369.374,908.96 365.919,899.935 369.355,892.237C372.021,886.265 379.023,883.584 384.995,886.25C389.629,888.318 391.709,893.751 389.64,898.384C388.036,901.979 383.821,903.593 380.226,901.988C377.437,900.743 376.185,897.473 377.43,894.684" style="fill:#303335;"/></g><path d="M124.511,821.538L158.424,842.207C159.743,842.155 161.074,841.918 162.385,841.48C168.189,839.54 171.876,834.226 171.998,828.47C173.198,827.737 174.366,826.964 175.5,826.154C180.924,828.241 187.296,826.899 191.324,822.333C195.359,817.759 195.856,811.297 193.046,806.227C193.702,805.008 194.316,803.766 194.885,802.503C200.626,801.636 205.458,797.304 206.633,791.325C207.806,785.356 204.989,779.498 200.025,776.48C199.977,775.089 199.88,773.695 199.731,772.298C204.231,768.694 206.206,762.539 204.209,756.765C202.213,750.992 196.83,747.296 191.028,747.134C190.28,745.937 189.493,744.773 188.668,743.642C190.732,738.276 189.334,731.944 184.703,727.914C180.064,723.878 173.547,723.338 168.458,726.09C167.224,725.43 165.967,724.813 164.69,724.239C163.775,718.536 159.374,713.711 153.34,712.502C147.315,711.295 141.431,714.048 138.425,718.952C137.024,718.989 135.618,719.076 134.212,719.214C130.546,714.723 124.329,712.719 118.524,714.659C118.09,714.804 117.667,714.968 117.257,715.149L100.711,757.758L97.478,758.857C90.714,761.157 87.089,768.515 89.389,775.279L91.498,781.482L92.372,795.178L100.047,806.629L102.959,815.194C105.259,821.958 112.617,825.582 119.381,823.282L124.511,821.538Z" style="fill:#303335;"/><clipPath id="_clip2"><path d="M124.511,821.538L158.424,842.207C159.743,842.155 161.074,841.918 162.385,841.48C168.189,839.54 171.876,834.226 171.998,828.47C173.198,827.737 174.366,826.964 175.5,826.154C180.924,828.241 187.296,826.899 191.324,822.333C195.359,817.759 195.856,811.297 193.046,806.227C193.702,805.008 194.316,803.766 194.885,802.503C200.626,801.636 205.458,797.304 206.633,791.325C207.806,785.356 204.989,779.498 200.025,776.48C199.977,775.089 199.88,773.695 199.731,772.298C204.231,768.694 206.206,762.539 204.209,756.765C202.213,750.992 196.83,747.296 191.028,747.134C190.28,745.937 189.493,744.773 188.668,743.642C190.732,738.276 189.334,731.944 184.703,727.914C180.064,723.878 173.547,723.338 168.458,726.09C167.224,725.43 165.967,724.813 164.69,724.239C163.775,718.536 159.374,713.711 153.34,712.502C147.315,711.295 141.431,714.048 138.425,718.952C137.024,718.989 135.618,719.076 134.212,719.214C130.546,714.723 124.329,712.719 118.524,714.659C118.09,714.804 117.667,714.968 117.257,715.149L100.711,757.758L97.478,758.857C90.714,761.157 87.089,768.515 89.389,775.279L91.498,781.482L92.372,795.178L100.047,806.629L102.959,815.194C105.259,821.958 112.617,825.582 119.381,823.282L124.511,821.538Z"/></clipPath><g clip-path="url(#_clip2)"><path d="M181.745,829.312L67.622,784.349L170.379,851.059L181.745,829.312Z" style="fill:#252829;"/><path d="M206.256,771.88L83.58,797.406L207.415,803.344L206.256,771.88Z" style="fill:#252829;"/><path d="M141.952,712.268L78.883,817.473L119.687,701.956L141.952,712.268Z" style="fill:#252829;"/><path d="M196.39,742.859L83.576,797.396L178.131,717.209L196.39,742.859Z" style="fill:#252829;"/></g><g><path d="M848.504,1054.707C828.022,1045.819 806.011,1051.004 799.382,1066.281C792.753,1081.557 803.999,1101.175 824.481,1110.064C844.962,1118.952 866.973,1113.766 873.603,1098.49C880.232,1083.214 868.986,1063.596 848.504,1054.707Z" style="fill:#252829;"/><path d="M801.464,1082.679C794.948,1100.12 739.954,1064.038 739.954,1064.038C760.259,1018.545 813.6,998.126 859.093,1018.432C894.389,1034.186 910.23,1075.57 894.476,1110.866C882.254,1138.249 850.146,1150.54 822.762,1138.317C801.517,1128.834 791.982,1103.924 801.464,1082.679C808.822,1066.196 828.148,1058.798 844.631,1066.155C857.419,1071.863 863.159,1086.857 857.451,1099.645C853.023,1109.567 841.389,1114.02 831.468,1109.592C823.77,1106.156 820.315,1097.13 823.751,1089.433C826.417,1083.46 833.419,1080.78 839.391,1083.446C844.025,1085.514 846.104,1090.946 844.036,1095.58C842.432,1099.175 838.217,1100.788 834.622,1099.184C831.833,1097.939 830.581,1094.669 831.826,1091.88" style="fill:#303335;"/></g><path d="M937.412,934.439L971.326,955.108C972.644,955.056 973.976,954.819 975.286,954.381C981.091,952.441 984.778,947.127 984.899,941.371C986.1,940.638 987.268,939.865 988.402,939.055C993.826,941.141 1000.197,939.8 1004.226,935.234C1008.26,930.66 1008.758,924.198 1005.947,919.128C1006.604,917.909 1007.217,916.666 1007.786,915.404C1013.527,914.537 1018.36,910.205 1019.534,904.226C1020.708,898.257 1017.89,892.399 1012.927,889.381C1012.879,887.99 1012.781,886.596 1012.632,885.199C1017.132,881.594 1019.108,875.44 1017.111,869.666C1015.114,863.893 1009.732,860.197 1003.929,860.035C1003.181,858.838 1002.394,857.674 1001.57,856.543C1003.634,851.177 1002.235,844.845 997.604,840.815C992.966,836.779 986.448,836.239 981.359,838.991C980.125,838.331 978.869,837.714 977.592,837.14C976.677,831.437 972.276,826.612 966.241,825.403C960.216,824.196 954.333,826.949 951.326,831.853C949.925,831.89 948.52,831.977 947.113,832.115C943.448,827.624 937.23,825.62 931.426,827.559C930.991,827.705 930.569,827.869 930.159,828.05L913.613,870.659L910.379,871.758C903.615,874.057 899.991,881.416 902.29,888.18L904.4,894.383L905.273,908.079L912.949,919.53L915.861,928.095C918.16,934.858 925.519,938.483 932.283,936.183L937.412,934.439Z" style="fill:#303335;"/><clipPath id="_clip3"><path d="M937.412,934.439L971.326,955.108C972.644,955.056 973.976,954.819 975.286,954.381C981.091,952.441 984.778,947.127 984.899,941.371C986.1,940.638 987.268,939.865 988.402,939.055C993.826,941.141 1000.197,939.8 1004.226,935.234C1008.26,930.66 1008.758,924.198 1005.947,919.128C1006.604,917.909 1007.217,916.666 1007.786,915.404C1013.527,914.537 1018.36,910.205 1019.534,904.226C1020.708,898.257 1017.89,892.399 1012.927,889.381C1012.879,887.99 1012.781,886.596 1012.632,885.199C1017.132,881.594 1019.108,875.44 1017.111,869.666C1015.114,863.893 1009.732,860.197 1003.929,860.035C1003.181,858.838 1002.394,857.674 1001.57,856.543C1003.634,851.177 1002.235,844.845 997.604,840.815C992.966,836.779 986.448,836.239 981.359,838.991C980.125,838.331 978.869,837.714 977.592,837.14C976.677,831.437 972.276,826.612 966.241,825.403C960.216,824.196 954.333,826.949 951.326,831.853C949.925,831.89 948.52,831.977 947.113,832.115C943.448,827.624 937.23,825.62 931.426,827.559C930.991,827.705 930.569,827.869 930.159,828.05L913.613,870.659L910.379,871.758C903.615,874.057 899.991,881.416 902.29,888.18L904.4,894.383L905.273,908.079L912.949,919.53L915.861,928.095C918.16,934.858 925.519,938.483 932.283,936.183L937.412,934.439Z"/></clipPath><g clip-path="url(#_clip3)"><path d="M994.646,942.213L880.523,897.25L983.281,963.96L994.646,942.213Z" style="fill:#252829;"/><path d="M1019.158,884.781L896.481,910.307L1020.317,916.245L1019.158,884.781Z" style="fill:#252829;"/><path d="M954.853,825.169L891.785,930.374L932.588,814.857L954.853,825.169Z" style="fill:#252829;"/><path d="M1009.291,855.76L896.478,910.297L991.033,830.11L1009.291,855.76Z" style="fill:#252829;"/></g><g><path d="M202.328,294.531C181.847,285.643 159.836,290.829 153.206,306.105C146.577,321.381 157.823,341 178.305,349.888C198.787,358.777 220.798,353.591 227.427,338.314C234.056,323.038 222.81,303.42 202.328,294.531Z" style="fill:#252829;"/><path d="M155.289,322.503C148.773,339.944 93.778,303.862 93.778,303.862C114.084,258.369 167.424,237.95 212.918,258.256C248.213,274.01 264.055,315.394 248.301,350.69C236.078,378.074 203.971,390.364 176.587,378.141C155.341,368.659 145.806,343.748 155.289,322.503C162.646,306.02 181.972,298.622 198.456,305.979C211.244,311.687 216.984,326.681 211.276,339.469C206.847,349.391 195.214,353.844 185.292,349.416C177.594,345.98 174.14,336.954 177.575,329.257C180.241,323.285 187.243,320.604 193.216,323.27C197.849,325.338 199.929,330.771 197.861,335.404C196.256,338.999 192.041,340.612 188.446,339.008C185.657,337.763 184.405,334.493 185.65,331.704" style="fill:#303335;"/></g><g><path d="M968.19,435.404C961.674,452.845 906.679,416.763 906.679,416.763C926.985,371.27 980.326,350.851 1025.819,371.157C1061.115,386.911 1076.956,428.295 1061.202,463.591C1048.98,490.975 1016.872,503.265 989.488,491.042C968.243,481.56 958.707,456.649 968.19,435.404C975.548,418.921 994.874,411.523 1011.357,418.88C1024.145,424.588 1029.885,439.582 1024.177,452.37C1019.749,462.292 1008.115,466.745 998.194,462.317C990.496,458.881 987.041,449.855 990.477,442.158C993.143,436.186 1000.145,433.505 1006.117,436.171C1010.751,438.239 1012.83,443.672 1010.762,448.305C1009.158,451.9 1004.943,453.513 1001.348,451.909C998.559,450.664 997.307,447.394 998.552,444.605" style="fill:#303335;"/></g><path d="M745.632,371.459L779.546,392.128C780.864,392.075 782.196,391.838 783.506,391.401C789.311,389.461 792.998,384.147 793.119,378.391C794.32,377.657 795.488,376.885 796.622,376.075C802.046,378.161 808.417,376.819 812.446,372.253C816.48,367.68 816.978,361.217 814.167,356.148C814.824,354.929 815.437,353.686 816.006,352.424C821.747,351.556 826.58,347.224 827.755,341.246C828.928,335.276 826.11,329.419 821.147,326.4C821.099,325.01 821.001,323.615 820.852,322.219C825.352,318.614 827.328,312.459 825.331,306.686C823.334,300.913 817.952,297.217 812.149,297.055C811.402,295.858 810.614,294.694 809.79,293.563C811.854,288.196 810.455,281.865 805.824,277.835C801.186,273.799 794.669,273.259 789.579,276.011C788.345,275.351 787.089,274.733 785.812,274.16C784.897,268.457 780.496,263.631 774.461,262.423C768.436,261.216 762.553,263.969 759.546,268.872C758.145,268.91 756.74,268.997 755.334,269.134C751.668,264.644 745.45,262.64 739.646,264.579C739.211,264.724 738.789,264.888 738.379,265.07L721.833,307.678L718.599,308.778C711.835,311.077 708.211,318.436 710.511,325.199L712.62,331.403L713.493,345.098L721.169,356.55L724.081,365.114C726.381,371.878 733.739,375.503 740.503,373.203L745.632,371.459Z" style="fill:#303335;"/><clipPath id="_clip4"><path d="M745.632,371.459L779.546,392.128C780.864,392.075 782.196,391.838 783.506,391.401C789.311,389.461 792.998,384.147 793.119,378.391C794.32,377.657 795.488,376.885 796.622,376.075C802.046,378.161 808.417,376.819 812.446,372.253C816.48,367.68 816.978,361.217 814.167,356.148C814.824,354.929 815.437,353.686 816.006,352.424C821.747,351.556 826.58,347.224 827.755,341.246C828.928,335.276 826.11,329.419 821.147,326.4C821.099,325.01 821.001,323.615 820.852,322.219C825.352,318.614 827.328,312.459 825.331,306.686C823.334,300.913 817.952,297.217 812.149,297.055C811.402,295.858 810.614,294.694 809.79,293.563C811.854,288.196 810.455,281.865 805.824,277.835C801.186,273.799 794.669,273.259 789.579,276.011C788.345,275.351 787.089,274.733 785.812,274.16C784.897,268.457 780.496,263.631 774.461,262.423C768.436,261.216 762.553,263.969 759.546,268.872C758.145,268.91 756.74,268.997 755.334,269.134C751.668,264.644 745.45,262.64 739.646,264.579C739.211,264.724 738.789,264.888 738.379,265.07L721.833,307.678L718.599,308.778C711.835,311.077 708.211,318.436 710.511,325.199L712.62,331.403L713.493,345.098L721.169,356.55L724.081,365.114C726.381,371.878 733.739,375.503 740.503,373.203L745.632,371.459Z"/></clipPath><g clip-path="url(#_clip4)"><path d="M802.866,379.233L688.743,334.27L791.501,400.979L802.866,379.233Z" style="fill:#252829;"/><path d="M827.378,321.8L704.701,347.326L828.537,353.265L827.378,321.8Z" style="fill:#252829;"/><path d="M763.073,262.189L700.005,367.394L740.808,251.876L763.073,262.189Z" style="fill:#252829;"/><path d="M817.512,292.78L704.698,347.317L799.253,267.129L817.512,292.78Z" style="fill:#252829;"/></g><g><path d="M464.944,-71.254C444.463,-80.142 422.452,-74.956 415.822,-59.68C409.193,-44.404 420.439,-24.785 440.921,-15.897C461.403,-7.008 483.413,-12.194 490.043,-27.47C496.672,-42.746 485.426,-62.365 464.944,-71.254Z" style="fill:#252829;"/><path d="M417.905,-43.282C411.389,-25.841 356.394,-61.923 356.394,-61.923C376.7,-107.416 430.04,-127.834 475.534,-107.529C510.829,-91.774 526.671,-50.39 510.917,-15.095C498.694,12.289 466.587,24.579 439.203,12.357C417.957,2.874 408.422,-22.036 417.905,-43.282C425.262,-59.765 444.588,-67.163 461.071,-59.806C473.86,-54.098 479.599,-39.104 473.891,-26.315C469.463,-16.394 457.83,-11.94 447.908,-16.369C440.21,-19.805 436.755,-28.83 440.191,-36.528C442.857,-42.5 449.859,-45.181 455.831,-42.515C460.465,-40.447 462.545,-35.014 460.476,-30.381C458.872,-26.786 454.657,-25.172 451.062,-26.777C448.273,-28.022 447.021,-31.292 448.266,-34.081" style="fill:#303335;"/></g><path d="M-67.269,258.558L-33.356,279.227C-32.037,279.174 -30.706,278.937 -29.395,278.5C-23.59,276.56 -19.904,271.246 -19.782,265.49C-18.581,264.757 -17.414,263.984 -16.28,263.174C-10.856,265.26 -4.484,263.918 -0.456,259.352C3.579,254.779 4.076,248.317 1.266,243.247C1.923,242.028 2.536,240.785 3.105,239.523C8.846,238.655 13.678,234.323 14.853,228.345C16.026,222.375 13.209,216.518 8.245,213.5C8.197,212.109 8.1,210.714 7.951,209.318C12.451,205.713 14.426,199.558 12.429,193.785C10.433,188.012 5.051,184.316 -0.752,184.154C-1.5,182.957 -2.287,181.793 -3.112,180.662C-1.048,175.295 -2.446,168.964 -7.077,164.934C-11.716,160.898 -18.233,160.358 -23.322,163.11C-24.556,162.45 -25.813,161.832 -27.089,161.259C-28.005,155.556 -32.406,150.731 -38.44,149.522C-44.465,148.315 -50.349,151.068 -53.355,155.972C-54.756,156.009 -56.161,156.096 -57.568,156.234C-61.233,151.743 -67.451,149.739 -73.256,151.678C-73.69,151.823 -74.113,151.987 -74.523,152.169L-91.069,194.777L-94.302,195.877C-101.066,198.176 -104.691,205.535 -102.391,212.298L-100.282,218.502L-99.408,232.197L-91.732,243.649L-88.821,252.213C-86.521,258.977 -79.163,262.602 -72.399,260.302L-67.269,258.558Z" style="fill:#303335;"/><clipPath id="_clip5"><path d="M-67.269,258.558L-33.356,279.227C-32.037,279.174 -30.706,278.937 -29.395,278.5C-23.59,276.56 -19.904,271.246 -19.782,265.49C-18.581,264.757 -17.414,263.984 -16.28,263.174C-10.856,265.26 -4.484,263.918 -0.456,259.352C3.579,254.779 4.076,248.317 1.266,243.247C1.923,242.028 2.536,240.785 3.105,239.523C8.846,238.655 13.678,234.323 14.853,228.345C16.026,222.375 13.209,216.518 8.245,213.5C8.197,212.109 8.1,210.714 7.951,209.318C12.451,205.713 14.426,199.558 12.429,193.785C10.433,188.012 5.051,184.316 -0.752,184.154C-1.5,182.957 -2.287,181.793 -3.112,180.662C-1.048,175.295 -2.446,168.964 -7.077,164.934C-11.716,160.898 -18.233,160.358 -23.322,163.11C-24.556,162.45 -25.813,161.832 -27.089,161.259C-28.005,155.556 -32.406,150.731 -38.44,149.522C-44.465,148.315 -50.349,151.068 -53.355,155.972C-54.756,156.009 -56.161,156.096 -57.568,156.234C-61.233,151.743 -67.451,149.739 -73.256,151.678C-73.69,151.823 -74.113,151.987 -74.523,152.169L-91.069,194.777L-94.302,195.877C-101.066,198.176 -104.691,205.535 -102.391,212.298L-100.282,218.502L-99.408,232.197L-91.732,243.649L-88.821,252.213C-86.521,258.977 -79.163,262.602 -72.399,260.302L-67.269,258.558Z"/></clipPath><g clip-path="url(#_clip5)"><path d="M14.476,208.899L-108.2,234.425L15.636,240.364L14.476,208.899Z" style="fill:#252829;"/><path d="M4.61,179.879L-108.203,234.416L-13.649,154.228L4.61,179.879Z" style="fill:#252829;"/></g><g><path d="M656.724,491.727C636.242,482.838 614.232,488.024 607.602,503.3C600.973,518.576 612.219,538.195 632.701,547.084C653.182,555.972 675.193,550.786 681.823,535.51C688.452,520.234 677.206,500.615 656.724,491.727Z" style="fill:#252829;"/><path d="M609.685,519.698C603.169,537.139 548.174,501.058 548.174,501.058C568.479,455.564 621.82,435.146 667.314,455.452C702.609,471.206 718.451,512.59 702.697,547.885C690.474,575.269 658.366,587.56 630.983,575.337C609.737,565.854 600.202,540.944 609.685,519.698C617.042,503.215 636.368,495.817 652.851,503.174C665.64,508.882 671.379,523.877 665.671,536.665C661.243,546.587 649.61,551.04 639.688,546.611C631.99,543.175 628.535,534.15 631.971,526.452C634.637,520.48 641.639,517.8 647.611,520.465C652.245,522.533 654.324,527.966 652.256,532.6C650.652,536.194 646.437,537.808 642.842,536.203C640.053,534.959 638.801,531.688 640.046,528.899" style="fill:#303335;"/></g><path d="M387.127,455.754L421.04,476.423C422.359,476.37 423.69,476.133 425.001,475.695C430.805,473.755 434.492,468.442 434.614,462.686C435.814,461.952 436.982,461.179 438.116,460.37C443.54,462.456 449.912,461.114 453.94,456.548C457.975,451.975 458.472,445.512 455.662,440.443C456.318,439.223 456.932,437.981 457.5,436.718C463.242,435.851 468.074,431.519 469.249,425.54C470.422,419.571 467.605,413.714 462.641,410.695C462.593,409.305 462.495,407.91 462.347,406.513C466.847,402.909 468.822,396.754 466.825,390.981C464.828,385.207 459.446,381.511 453.644,381.349C452.896,380.153 452.108,378.988 451.284,377.858C453.348,372.491 451.95,366.159 447.318,362.13C442.68,358.093 436.163,357.554 431.074,360.306C429.84,359.645 428.583,359.028 427.306,358.454C426.391,352.752 421.99,347.926 415.956,346.717C409.931,345.511 404.047,348.264 401.04,353.167C399.639,353.204 398.234,353.291 396.828,353.429C393.162,348.938 386.945,346.934 381.14,348.874C380.706,349.019 380.283,349.183 379.873,349.365L363.327,391.973L360.093,393.072C353.33,395.372 349.705,402.73 352.005,409.494L354.114,415.698L354.987,429.393L362.663,440.844L365.575,449.409C367.875,456.173 375.233,459.797 381.997,457.498L387.127,455.754Z" style="fill:#303335;"/><clipPath id="_clip6"><path d="M387.127,455.754L421.04,476.423C422.359,476.37 423.69,476.133 425.001,475.695C430.805,473.755 434.492,468.442 434.614,462.686C435.814,461.952 436.982,461.179 438.116,460.37C443.54,462.456 449.912,461.114 453.94,456.548C457.975,451.975 458.472,445.512 455.662,440.443C456.318,439.223 456.932,437.981 457.5,436.718C463.242,435.851 468.074,431.519 469.249,425.54C470.422,419.571 467.605,413.714 462.641,410.695C462.593,409.305 462.495,407.91 462.347,406.513C466.847,402.909 468.822,396.754 466.825,390.981C464.828,385.207 459.446,381.511 453.644,381.349C452.896,380.153 452.108,378.988 451.284,377.858C453.348,372.491 451.95,366.159 447.318,362.13C442.68,358.093 436.163,357.554 431.074,360.306C429.84,359.645 428.583,359.028 427.306,358.454C426.391,352.752 421.99,347.926 415.956,346.717C409.931,345.511 404.047,348.264 401.04,353.167C399.639,353.204 398.234,353.291 396.828,353.429C393.162,348.938 386.945,346.934 381.14,348.874C380.706,349.019 380.283,349.183 379.873,349.365L363.327,391.973L360.093,393.072C353.33,395.372 349.705,402.73 352.005,409.494L354.114,415.698L354.987,429.393L362.663,440.844L365.575,449.409C367.875,456.173 375.233,459.797 381.997,457.498L387.127,455.754Z"/></clipPath><g clip-path="url(#_clip6)"><path d="M444.36,463.527L330.238,418.565L432.995,485.274L444.36,463.527Z" style="fill:#252829;"/><path d="M468.872,406.095L346.196,431.621L470.031,437.559L468.872,406.095Z" style="fill:#252829;"/><path d="M404.568,346.484L341.499,451.688L382.303,336.171L404.568,346.484Z" style="fill:#252829;"/><path d="M459.006,377.075L346.192,431.611L440.747,351.424L459.006,377.075Z" style="fill:#252829;"/></g><path d="M674.796,1300.224L708.71,1320.893C710.028,1320.84 711.36,1320.603 712.67,1320.166C718.475,1318.226 722.162,1312.912 722.283,1307.156C723.484,1306.423 724.652,1305.65 725.786,1304.84C731.21,1306.926 737.581,1305.584 741.61,1301.018C745.644,1296.445 746.142,1289.982 743.331,1284.913C743.988,1283.694 744.601,1282.451 745.17,1281.189C750.911,1280.321 755.744,1275.989 756.919,1270.011C758.092,1264.041 755.274,1258.184 750.311,1255.165C750.263,1253.775 750.165,1252.38 750.016,1250.984C754.516,1247.379 756.492,1241.224 754.495,1235.451C752.498,1229.678 747.116,1225.982 741.313,1225.82C740.566,1224.623 739.778,1223.459 738.954,1222.328C741.018,1216.961 739.619,1210.63 734.988,1206.6C730.35,1202.564 723.833,1202.024 718.743,1204.776C717.509,1204.116 716.253,1203.498 714.976,1202.925C714.061,1197.222 709.66,1192.396 703.625,1191.188C697.6,1189.981 691.717,1192.734 688.71,1197.637C687.309,1197.675 685.904,1197.762 684.498,1197.9C680.832,1193.409 674.614,1191.405 668.81,1193.344C668.375,1193.489 667.953,1193.653 667.543,1193.835L650.997,1236.443L647.763,1237.543C640.999,1239.842 637.375,1247.201 639.675,1253.964L641.784,1260.168L642.657,1273.863L650.333,1285.315L653.245,1293.879C655.545,1300.643 662.903,1304.268 669.667,1301.968L674.796,1300.224Z" style="fill:#303335;"/><clipPath id="_clip7"><path d="M674.796,1300.224L708.71,1320.893C710.028,1320.84 711.36,1320.603 712.67,1320.166C718.475,1318.226 722.162,1312.912 722.283,1307.156C723.484,1306.423 724.652,1305.65 725.786,1304.84C731.21,1306.926 737.581,1305.584 741.61,1301.018C745.644,1296.445 746.142,1289.982 743.331,1284.913C743.988,1283.694 744.601,1282.451 745.17,1281.189C750.911,1280.321 755.744,1275.989 756.919,1270.011C758.092,1264.041 755.274,1258.184 750.311,1255.165C750.263,1253.775 750.165,1252.38 750.016,1250.984C754.516,1247.379 756.492,1241.224 754.495,1235.451C752.498,1229.678 747.116,1225.982 741.313,1225.82C740.566,1224.623 739.778,1223.459 738.954,1222.328C741.018,1216.961 739.619,1210.63 734.988,1206.6C730.35,1202.564 723.833,1202.024 718.743,1204.776C717.509,1204.116 716.253,1203.498 714.976,1202.925C714.061,1197.222 709.66,1192.396 703.625,1191.188C697.6,1189.981 691.717,1192.734 688.71,1197.637C687.309,1197.675 685.904,1197.762 684.498,1197.9C680.832,1193.409 674.614,1191.405 668.81,1193.344C668.375,1193.489 667.953,1193.653 667.543,1193.835L650.997,1236.443L647.763,1237.543C640.999,1239.842 637.375,1247.201 639.675,1253.964L641.784,1260.168L642.657,1273.863L650.333,1285.315L653.245,1293.879C655.545,1300.643 662.903,1304.268 669.667,1301.968L674.796,1300.224Z"/></clipPath><g clip-path="url(#_clip7)"><path d="M692.237,1190.954L629.169,1296.159L669.972,1180.641L692.237,1190.954Z" style="fill:#252829;"/><path d="M746.676,1221.545L633.862,1276.082L728.417,1195.894L746.676,1221.545Z" style="fill:#252829;"/></g><path d="M578.906,1018.734L612.82,1039.403C614.138,1039.35 615.47,1039.113 616.781,1038.675C622.585,1036.736 626.272,1031.422 626.394,1025.666C627.594,1024.932 628.762,1024.16 629.896,1023.35C635.32,1025.436 641.692,1024.094 645.72,1019.528C649.755,1014.955 650.252,1008.492 647.442,1003.423C648.098,1002.203 648.711,1000.961 649.28,999.698C655.021,998.831 659.854,994.499 661.029,988.52C662.202,982.551 659.384,976.694 654.421,973.675C654.373,972.285 654.275,970.89 654.126,969.494C658.626,965.889 660.602,959.734 658.605,953.961C656.608,948.188 651.226,944.491 645.424,944.33C644.676,943.133 643.888,941.969 643.064,940.838C645.128,935.471 643.729,929.14 639.098,925.11C634.46,921.074 627.943,920.534 622.853,923.286C621.619,922.626 620.363,922.008 619.086,921.435C618.171,915.732 613.77,910.906 607.735,909.698C601.711,908.491 595.827,911.244 592.82,916.147C591.419,916.185 590.014,916.272 588.608,916.409C584.942,911.919 578.725,909.914 572.92,911.854C572.486,911.999 572.063,912.163 571.653,912.345L555.107,954.953L551.873,956.052C545.109,958.352 541.485,965.71 543.785,972.474L545.894,978.678L546.767,992.373L554.443,1003.824L557.355,1012.389C559.655,1019.153 567.013,1022.777 573.777,1020.478L578.906,1018.734Z" style="fill:#303335;"/><clipPath id="_clip8"><path d="M578.906,1018.734L612.82,1039.403C614.138,1039.35 615.47,1039.113 616.781,1038.675C622.585,1036.736 626.272,1031.422 626.394,1025.666C627.594,1024.932 628.762,1024.16 629.896,1023.35C635.32,1025.436 641.692,1024.094 645.72,1019.528C649.755,1014.955 650.252,1008.492 647.442,1003.423C648.098,1002.203 648.711,1000.961 649.28,999.698C655.021,998.831 659.854,994.499 661.029,988.52C662.202,982.551 659.384,976.694 654.421,973.675C654.373,972.285 654.275,970.89 654.126,969.494C658.626,965.889 660.602,959.734 658.605,953.961C656.608,948.188 651.226,944.491 645.424,944.33C644.676,943.133 643.888,941.969 643.064,940.838C645.128,935.471 643.729,929.14 639.098,925.11C634.46,921.074 627.943,920.534 622.853,923.286C621.619,922.626 620.363,922.008 619.086,921.435C618.171,915.732 613.77,910.906 607.735,909.698C601.711,908.491 595.827,911.244 592.82,916.147C591.419,916.185 590.014,916.272 588.608,916.409C584.942,911.919 578.725,909.914 572.92,911.854C572.486,911.999 572.063,912.163 571.653,912.345L555.107,954.953L551.873,956.052C545.109,958.352 541.485,965.71 543.785,972.474L545.894,978.678L546.767,992.373L554.443,1003.824L557.355,1012.389C559.655,1019.153 567.013,1022.777 573.777,1020.478L578.906,1018.734Z"/></clipPath><g clip-path="url(#_clip8)"><path d="M636.14,1026.508L522.018,981.545L624.775,1048.254L636.14,1026.508Z" style="fill:#252829;"/><path d="M660.652,969.075L537.975,994.601L661.811,1000.539L660.652,969.075Z" style="fill:#252829;"/><path d="M596.348,909.464L533.279,1014.669L574.083,899.151L596.348,909.464Z" style="fill:#252829;"/><path d="M650.786,940.055L537.972,994.592L632.527,914.404L650.786,940.055Z" style="fill:#252829;"/></g><g><path d="M919.34,125.942C898.858,117.054 876.847,122.239 870.218,137.516C863.589,152.792 874.835,172.41 895.317,181.299C915.798,190.187 937.809,185.001 944.439,169.725C951.068,154.449 939.822,134.831 919.34,125.942Z" style="fill:#252829;"/><path d="M872.3,153.914C865.784,171.355 810.79,135.273 810.79,135.273C831.095,89.78 884.436,69.361 929.929,89.667C965.225,105.421 981.066,146.805 965.312,182.101C953.09,209.484 920.982,221.775 893.598,209.552C872.353,200.069 862.818,175.159 872.3,153.914C879.658,137.431 898.984,130.033 915.467,137.39C928.255,143.098 933.995,158.092 928.287,170.88C923.859,180.802 912.225,185.255 902.304,180.827C894.606,177.391 891.151,168.365 894.587,160.668C897.253,154.695 904.255,152.015 910.227,154.681C914.861,156.749 916.94,162.181 914.872,166.815C913.268,170.41 909.053,172.023 905.458,170.419C902.669,169.174 901.417,165.904 902.662,163.115" style="fill:#303335;"/></g><path d="M649.742,89.969L683.656,110.638C684.974,110.585 686.306,110.348 687.617,109.91C693.421,107.971 697.108,102.657 697.23,96.901C698.43,96.167 699.598,95.395 700.732,94.585C706.156,96.671 712.528,95.329 716.556,90.763C720.591,86.19 721.088,79.727 718.278,74.658C718.934,73.438 719.547,72.196 720.116,70.933C725.857,70.066 730.69,65.734 731.865,59.755C733.038,53.786 730.22,47.929 725.257,44.91C725.209,43.52 725.111,42.125 724.962,40.729C729.462,37.124 731.438,30.969 729.441,25.196C727.444,19.423 722.062,15.726 716.26,15.565C715.512,14.368 714.724,13.204 713.9,12.073C715.964,6.706 714.565,0.375 709.934,-3.655C705.296,-7.691 698.779,-8.231 693.689,-5.479C692.455,-6.139 691.199,-6.757 689.922,-7.33C689.007,-13.033 684.606,-17.859 678.571,-19.067C672.547,-20.274 666.663,-17.521 663.656,-12.618C662.255,-12.58 660.85,-12.493 659.444,-12.356C655.778,-16.846 649.561,-18.851 643.756,-16.911C643.322,-16.766 642.899,-16.602 642.489,-16.42L625.943,26.188L622.709,27.287C615.945,29.587 612.321,36.945 614.621,43.709L616.73,49.913L617.603,63.608L625.279,75.059L628.191,83.624C630.491,90.388 637.849,94.012 644.613,91.713L649.742,89.969Z" style="fill:#303335;"/><clipPath id="_clip9"><path d="M649.742,89.969L683.656,110.638C684.974,110.585 686.306,110.348 687.617,109.91C693.421,107.971 697.108,102.657 697.23,96.901C698.43,96.167 699.598,95.395 700.732,94.585C706.156,96.671 712.528,95.329 716.556,90.763C720.591,86.19 721.088,79.727 718.278,74.658C718.934,73.438 719.547,72.196 720.116,70.933C725.857,70.066 730.69,65.734 731.865,59.755C733.038,53.786 730.22,47.929 725.257,44.91C725.209,43.52 725.111,42.125 724.962,40.729C729.462,37.124 731.438,30.969 729.441,25.196C727.444,19.423 722.062,15.726 716.26,15.565C715.512,14.368 714.724,13.204 713.9,12.073C715.964,6.706 714.565,0.375 709.934,-3.655C705.296,-7.691 698.779,-8.231 693.689,-5.479C692.455,-6.139 691.199,-6.757 689.922,-7.33C689.007,-13.033 684.606,-17.859 678.571,-19.067C672.547,-20.274 666.663,-17.521 663.656,-12.618C662.255,-12.58 660.85,-12.493 659.444,-12.356C655.778,-16.846 649.561,-18.851 643.756,-16.911C643.322,-16.766 642.899,-16.602 642.489,-16.42L625.943,26.188L622.709,27.287C615.945,29.587 612.321,36.945 614.621,43.709L616.73,49.913L617.603,63.608L625.279,75.059L628.191,83.624C630.491,90.388 637.849,94.012 644.613,91.713L649.742,89.969Z"/></clipPath><g clip-path="url(#_clip9)"><path d="M706.976,97.743L592.854,52.78L695.611,119.489L706.976,97.743Z" style="fill:#252829;"/><path d="M731.488,40.31L608.811,65.836L732.647,71.774L731.488,40.31Z" style="fill:#252829;"/><path d="M667.184,-19.301L604.115,85.904L644.919,-29.614L667.184,-19.301Z" style="fill:#252829;"/><path d="M721.622,11.29L608.808,65.827L703.363,-14.361L721.622,11.29Z" style="fill:#252829;"/></g><path d="M220.401,1103.028L254.314,1123.697C255.633,1123.645 256.964,1123.408 258.275,1122.97C264.079,1121.03 267.766,1115.717 267.888,1109.96C269.088,1109.227 270.256,1108.454 271.39,1107.644C276.814,1109.731 283.186,1108.389 287.214,1103.823C291.249,1099.249 291.746,1092.787 288.936,1087.718C289.592,1086.498 290.206,1085.256 290.775,1083.993C296.516,1083.126 301.348,1078.794 302.523,1072.815C303.696,1066.846 300.879,1060.988 295.915,1057.97C295.867,1056.58 295.77,1055.185 295.621,1053.788C300.121,1050.184 302.096,1044.029 300.099,1038.256C298.103,1032.482 292.72,1028.786 286.918,1028.624C286.17,1027.428 285.383,1026.263 284.558,1025.132C286.622,1019.766 285.224,1013.434 280.593,1009.404C275.954,1005.368 269.437,1004.829 264.348,1007.58C263.114,1006.92 261.857,1006.303 260.58,1005.729C259.665,1000.027 255.264,995.201 249.23,993.992C243.205,992.785 237.321,995.539 234.314,1000.442C232.913,1000.479 231.508,1000.566 230.102,1000.704C226.436,996.213 220.219,994.209 214.414,996.149C213.98,996.294 213.557,996.458 213.147,996.64L196.601,1039.248L193.367,1040.347C186.604,1042.647 182.979,1050.005 185.279,1056.769L187.388,1062.972L188.262,1076.668L195.937,1088.119L198.849,1096.684C201.149,1103.448 208.507,1107.072 215.271,1104.772L220.401,1103.028Z" style="fill:#303335;"/><clipPath id="_clip10"><path d="M220.401,1103.028L254.314,1123.697C255.633,1123.645 256.964,1123.408 258.275,1122.97C264.079,1121.03 267.766,1115.717 267.888,1109.96C269.088,1109.227 270.256,1108.454 271.39,1107.644C276.814,1109.731 283.186,1108.389 287.214,1103.823C291.249,1099.249 291.746,1092.787 288.936,1087.718C289.592,1086.498 290.206,1085.256 290.775,1083.993C296.516,1083.126 301.348,1078.794 302.523,1072.815C303.696,1066.846 300.879,1060.988 295.915,1057.97C295.867,1056.58 295.77,1055.185 295.621,1053.788C300.121,1050.184 302.096,1044.029 300.099,1038.256C298.103,1032.482 292.72,1028.786 286.918,1028.624C286.17,1027.428 285.383,1026.263 284.558,1025.132C286.622,1019.766 285.224,1013.434 280.593,1009.404C275.954,1005.368 269.437,1004.829 264.348,1007.58C263.114,1006.92 261.857,1006.303 260.58,1005.729C259.665,1000.027 255.264,995.201 249.23,993.992C243.205,992.785 237.321,995.539 234.314,1000.442C232.913,1000.479 231.508,1000.566 230.102,1000.704C226.436,996.213 220.219,994.209 214.414,996.149C213.98,996.294 213.557,996.458 213.147,996.64L196.601,1039.248L193.367,1040.347C186.604,1042.647 182.979,1050.005 185.279,1056.769L187.388,1062.972L188.262,1076.668L195.937,1088.119L198.849,1096.684C201.149,1103.448 208.507,1107.072 215.271,1104.772L220.401,1103.028Z"/></clipPath><g clip-path="url(#_clip10)"><path d="M277.635,1110.802L163.512,1065.84L266.269,1132.549L277.635,1110.802Z" style="fill:#252829;"/><path d="M302.146,1053.37L179.47,1078.896L303.305,1084.834L302.146,1053.37Z" style="fill:#252829;"/><path d="M237.842,993.759L174.773,1098.963L215.577,983.446L237.842,993.759Z" style="fill:#252829;"/><path d="M292.28,1024.35L179.466,1078.886L274.021,998.699L292.28,1024.35Z" style="fill:#252829;"/></g><g><path d="M298.218,576.021C277.737,567.133 255.726,572.319 249.096,587.595C242.467,602.871 253.713,622.49 274.195,631.378C294.677,640.267 316.687,635.081 323.317,619.805C329.946,604.528 318.7,584.91 298.218,576.021Z" style="fill:#252829;"/><path d="M251.179,603.993C244.663,621.434 189.668,585.352 189.668,585.352C209.974,539.859 263.314,519.441 308.808,539.746C344.103,555.5 359.945,596.884 344.191,632.18C331.968,659.564 299.861,671.854 272.477,659.632C251.231,650.149 241.696,625.238 251.179,603.993C258.536,587.51 277.862,580.112 294.346,587.469C307.134,593.177 312.873,608.171 307.165,620.96C302.737,630.881 291.104,635.334 281.182,630.906C273.484,627.47 270.03,618.445 273.465,610.747C276.131,604.775 283.133,602.094 289.106,604.76C293.739,606.828 295.819,612.261 293.75,616.894C292.146,620.489 287.931,622.103 284.336,620.498C281.547,619.253 280.295,615.983 281.54,613.194" style="fill:#303335;"/></g><path d="M28.621,540.048L62.534,560.717C63.853,560.665 65.184,560.428 66.495,559.99C72.3,558.05 75.986,552.736 76.108,546.98C77.308,546.247 78.476,545.474 79.61,544.664C85.034,546.75 91.406,545.408 95.434,540.842C99.469,536.269 99.966,529.807 97.156,524.737C97.812,523.518 98.426,522.275 98.995,521.013C104.736,520.146 109.568,515.813 110.743,509.835C111.916,503.866 109.099,498.008 104.135,494.99C104.087,493.599 103.99,492.205 103.841,490.808C108.341,487.203 110.316,481.049 108.319,475.275C106.323,469.502 100.94,465.806 95.138,465.644C94.39,464.447 93.603,463.283 92.778,462.152C94.842,456.785 93.444,450.454 88.813,446.424C84.174,442.388 77.657,441.848 72.568,444.6C71.334,443.94 70.077,443.322 68.801,442.749C67.885,437.046 63.484,432.221 57.45,431.012C51.425,429.805 45.541,432.558 42.535,437.462C41.134,437.499 39.729,437.586 38.322,437.724C34.657,433.233 28.439,431.229 22.634,433.168C22.2,433.314 21.777,433.478 21.367,433.659L4.821,476.267L1.588,477.367C-5.176,479.666 -8.801,487.025 -6.501,493.789L-4.392,499.992L-3.518,513.687L4.158,525.139L7.069,533.704C9.369,540.467 16.727,544.092 23.491,541.792L28.621,540.048Z" style="fill:#303335;"/><clipPath id="_clip11"><path d="M28.621,540.048L62.534,560.717C63.853,560.665 65.184,560.428 66.495,559.99C72.3,558.05 75.986,552.736 76.108,546.98C77.308,546.247 78.476,545.474 79.61,544.664C85.034,546.75 91.406,545.408 95.434,540.842C99.469,536.269 99.966,529.807 97.156,524.737C97.812,523.518 98.426,522.275 98.995,521.013C104.736,520.146 109.568,515.813 110.743,509.835C111.916,503.866 109.099,498.008 104.135,494.99C104.087,493.599 103.99,492.205 103.841,490.808C108.341,487.203 110.316,481.049 108.319,475.275C106.323,469.502 100.94,465.806 95.138,465.644C94.39,464.447 93.603,463.283 92.778,462.152C94.842,456.785 93.444,450.454 88.813,446.424C84.174,442.388 77.657,441.848 72.568,444.6C71.334,443.94 70.077,443.322 68.801,442.749C67.885,437.046 63.484,432.221 57.45,431.012C51.425,429.805 45.541,432.558 42.535,437.462C41.134,437.499 39.729,437.586 38.322,437.724C34.657,433.233 28.439,431.229 22.634,433.168C22.2,433.314 21.777,433.478 21.367,433.659L4.821,476.267L1.588,477.367C-5.176,479.666 -8.801,487.025 -6.501,493.789L-4.392,499.992L-3.518,513.687L4.158,525.139L7.069,533.704C9.369,540.467 16.727,544.092 23.491,541.792L28.621,540.048Z"/></clipPath><g clip-path="url(#_clip11)"><path d="M85.855,547.822L-28.268,502.859L74.489,569.569L85.855,547.822Z" style="fill:#252829;"/><path d="M110.366,490.389L-12.31,515.915L111.526,521.854L110.366,490.389Z" style="fill:#252829;"/><path d="M46.062,430.778L-17.007,535.983L23.797,420.465L46.062,430.778Z" style="fill:#252829;"/><path d="M100.5,461.369L-12.313,515.906L82.241,435.719L100.5,461.369Z" style="fill:#252829;"/></g><g><path d="M752.614,773.217C732.132,764.328 710.122,769.514 703.492,784.79C696.863,800.067 708.109,819.685 728.591,828.574C749.072,837.462 771.083,832.276 777.713,817C784.342,801.724 773.096,782.105 752.614,773.217Z" style="fill:#252829;"/><path d="M705.574,801.189C699.059,818.63 644.064,782.548 644.064,782.548C664.369,737.055 717.71,716.636 763.203,736.942C798.499,752.696 814.341,794.08 798.586,829.376C786.364,856.759 754.256,869.05 726.873,856.827C705.627,847.344 696.092,822.434 705.574,801.189C712.932,784.705 732.258,777.307 748.741,784.665C761.53,790.373 767.269,805.367 761.561,818.155C757.133,828.077 745.5,832.53 735.578,828.101C727.88,824.666 724.425,815.64 727.861,807.942C730.527,801.97 737.529,799.29 743.501,801.955C748.135,804.024 750.214,809.456 748.146,814.09C746.542,817.685 742.327,819.298 738.732,817.694C735.943,816.449 734.691,813.179 735.936,810.39" style="fill:#303335;"/></g><path d="M483.017,737.244L516.93,757.913C518.248,757.86 519.58,757.623 520.891,757.185C526.695,755.246 530.382,749.932 530.504,744.176C531.704,743.442 532.872,742.669 534.006,741.86C539.43,743.946 545.802,742.604 549.83,738.038C553.865,733.465 554.362,727.002 551.552,721.933C552.208,720.713 552.822,719.471 553.39,718.208C559.132,717.341 563.964,713.009 565.139,707.03C566.312,701.061 563.495,695.204 558.531,692.185C558.483,690.795 558.385,689.4 558.236,688.003C562.736,684.399 564.712,678.244 562.715,672.471C560.718,666.698 555.336,663.001 549.534,662.839C548.786,661.643 547.998,660.479 547.174,659.348C549.238,653.981 547.84,647.649 543.208,643.62C538.57,639.584 532.053,639.044 526.963,641.796C525.73,641.136 524.473,640.518 523.196,639.944C522.281,634.242 517.88,629.416 511.845,628.207C505.821,627.001 499.937,629.754 496.93,634.657C495.529,634.695 494.124,634.781 492.718,634.919C489.052,630.428 482.835,628.424 477.03,630.364C476.596,630.509 476.173,630.673 475.763,630.855L459.217,673.463L455.983,674.562C449.22,676.862 445.595,684.22 447.895,690.984L450.004,697.188L450.877,710.883L458.553,722.334L461.465,730.899C463.765,737.663 471.123,741.287 477.887,738.988L483.017,737.244Z" style="fill:#303335;"/><clipPath id="_clip12"><path d="M483.017,737.244L516.93,757.913C518.248,757.86 519.58,757.623 520.891,757.185C526.695,755.246 530.382,749.932 530.504,744.176C531.704,743.442 532.872,742.669 534.006,741.86C539.43,743.946 545.802,742.604 549.83,738.038C553.865,733.465 554.362,727.002 551.552,721.933C552.208,720.713 552.822,719.471 553.39,718.208C559.132,717.341 563.964,713.009 565.139,707.03C566.312,701.061 563.495,695.204 558.531,692.185C558.483,690.795 558.385,689.4 558.236,688.003C562.736,684.399 564.712,678.244 562.715,672.471C560.718,666.698 555.336,663.001 549.534,662.839C548.786,661.643 547.998,660.479 547.174,659.348C549.238,653.981 547.84,647.649 543.208,643.62C538.57,639.584 532.053,639.044 526.963,641.796C525.73,641.136 524.473,640.518 523.196,639.944C522.281,634.242 517.88,629.416 511.845,628.207C505.821,627.001 499.937,629.754 496.93,634.657C495.529,634.695 494.124,634.781 492.718,634.919C489.052,630.428 482.835,628.424 477.03,630.364C476.596,630.509 476.173,630.673 475.763,630.855L459.217,673.463L455.983,674.562C449.22,676.862 445.595,684.22 447.895,690.984L450.004,697.188L450.877,710.883L458.553,722.334L461.465,730.899C463.765,737.663 471.123,741.287 477.887,738.988L483.017,737.244Z"/></clipPath><g clip-path="url(#_clip12)"><path d="M540.25,745.018L426.128,700.055L528.885,766.764L540.25,745.018Z" style="fill:#252829;"/><path d="M564.762,687.585L442.086,713.111L565.921,719.049L564.762,687.585Z" style="fill:#252829;"/><path d="M500.458,627.974L437.389,733.179L478.193,617.661L500.458,627.974Z" style="fill:#252829;"/><path d="M554.896,658.565L442.082,713.101L536.637,632.914L554.896,658.565Z" style="fill:#252829;"/></g><path d="M841.522,652.949L875.436,673.618C876.754,673.565 878.086,673.329 879.396,672.891C885.201,670.951 888.888,665.637 889.009,659.881C890.21,659.148 891.378,658.375 892.512,657.565C897.936,659.651 904.307,658.309 908.336,653.743C912.37,649.17 912.868,642.708 910.057,637.638C910.714,636.419 911.327,635.176 911.896,633.914C917.637,633.047 922.47,628.714 923.645,622.736C924.818,616.767 922,610.909 917.037,607.891C916.989,606.5 916.891,605.106 916.742,603.709C921.242,600.104 923.218,593.95 921.221,588.176C919.224,582.403 913.842,578.707 908.039,578.545C907.291,577.348 906.504,576.184 905.68,575.053C907.744,569.686 906.345,563.355 901.714,559.325C897.076,555.289 890.559,554.749 885.469,557.501C884.235,556.841 882.979,556.223 881.702,555.65C880.787,549.947 876.386,545.122 870.351,543.913C864.326,542.706 858.443,545.459 855.436,550.363C854.035,550.4 852.63,550.487 851.223,550.625C847.558,546.134 841.34,544.13 835.536,546.069C835.101,546.214 834.679,546.379 834.269,546.56L817.723,589.168L814.489,590.268C807.725,592.567 804.101,599.926 806.401,606.689L808.51,612.893L809.383,626.588L817.059,638.04L819.971,646.605C822.271,653.368 829.629,656.993 836.393,654.693L841.522,652.949Z" style="fill:#303335;"/><clipPath id="_clip13"><path d="M841.522,652.949L875.436,673.618C876.754,673.565 878.086,673.329 879.396,672.891C885.201,670.951 888.888,665.637 889.009,659.881C890.21,659.148 891.378,658.375 892.512,657.565C897.936,659.651 904.307,658.309 908.336,653.743C912.37,649.17 912.868,642.708 910.057,637.638C910.714,636.419 911.327,635.176 911.896,633.914C917.637,633.047 922.47,628.714 923.645,622.736C924.818,616.767 922,610.909 917.037,607.891C916.989,606.5 916.891,605.106 916.742,603.709C921.242,600.104 923.218,593.95 921.221,588.176C919.224,582.403 913.842,578.707 908.039,578.545C907.291,577.348 906.504,576.184 905.68,575.053C907.744,569.686 906.345,563.355 901.714,559.325C897.076,555.289 890.559,554.749 885.469,557.501C884.235,556.841 882.979,556.223 881.702,555.65C880.787,549.947 876.386,545.122 870.351,543.913C864.326,542.706 858.443,545.459 855.436,550.363C854.035,550.4 852.63,550.487 851.223,550.625C847.558,546.134 841.34,544.13 835.536,546.069C835.101,546.214 834.679,546.379 834.269,546.56L817.723,589.168L814.489,590.268C807.725,592.567 804.101,599.926 806.401,606.689L808.51,612.893L809.383,626.588L817.059,638.04L819.971,646.605C822.271,653.368 829.629,656.993 836.393,654.693L841.522,652.949Z"/></clipPath><g clip-path="url(#_clip13)"><path d="M898.756,660.723L784.633,615.76L887.391,682.47L898.756,660.723Z" style="fill:#252829;"/><path d="M923.268,603.29L800.591,628.816L924.427,634.755L923.268,603.29Z" style="fill:#252829;"/><path d="M858.963,543.679L795.895,648.884L836.698,533.366L858.963,543.679Z" style="fill:#252829;"/><path d="M913.402,574.27L800.588,628.807L895.143,548.62L913.402,574.27Z" style="fill:#252829;"/></g><g><path d="M106.438,13.041C85.957,4.153 63.946,9.338 57.317,24.615C50.687,39.891 61.933,59.509 82.415,68.398C102.897,77.286 124.908,72.1 131.537,56.824C138.166,41.548 126.92,21.93 106.438,13.041Z" style="fill:#252829;"/><path d="M59.399,41.013C52.883,58.454 -2.112,22.372 -2.112,22.372C18.194,-23.121 71.535,-43.54 117.028,-23.234C152.323,-7.48 168.165,33.904 152.411,69.2C140.188,96.584 108.081,108.874 80.697,96.651C59.451,87.168 49.916,62.258 59.399,41.013C66.756,24.53 86.083,17.132 102.566,24.489C115.354,30.197 121.094,45.191 115.386,57.979C110.957,67.901 99.324,72.354 89.402,67.926C81.705,64.49 78.25,55.464 81.686,47.767C84.351,41.794 91.354,39.114 97.326,41.78C101.959,43.848 104.039,49.281 101.971,53.914C100.366,57.509 96.151,59.122 92.556,57.518C89.767,56.273 88.516,53.003 89.76,50.214" style="fill:#303335;"/></g><g><path d="M560.834,210.237C540.352,201.348 518.342,206.534 511.712,221.81C505.083,237.086 516.329,256.705 536.811,265.593C557.293,274.482 579.303,269.296 585.933,254.02C592.562,238.744 581.316,219.125 560.834,210.237Z" style="fill:#252829;"/><path d="M513.795,238.208C507.279,255.649 452.284,219.568 452.284,219.568C472.59,174.074 525.93,153.656 571.424,173.962C606.719,189.716 622.561,231.1 606.807,266.395C594.584,293.779 562.476,306.07 535.093,293.847C513.847,284.364 504.312,259.454 513.795,238.208C521.152,221.725 540.478,214.327 556.961,221.684C569.75,227.392 575.489,242.387 569.781,255.175C565.353,265.097 553.72,269.55 543.798,265.121C536.1,261.685 532.645,252.66 536.081,244.962C538.747,238.99 545.749,236.31 551.721,238.975C556.355,241.043 558.434,246.476 556.366,251.11C554.762,254.704 550.547,256.318 546.952,254.713C544.163,253.468 542.911,250.198 544.156,247.409" style="fill:#303335;"/></g><path d="M291.237,174.263L325.15,194.932C326.469,194.88 327.8,194.643 329.111,194.205C334.915,192.265 338.602,186.952 338.724,181.195C339.924,180.462 341.092,179.689 342.226,178.879C347.65,180.966 354.022,179.624 358.05,175.058C362.085,170.484 362.582,164.022 359.772,158.953C360.428,157.733 361.042,156.491 361.611,155.228C367.352,154.361 372.184,150.029 373.359,144.05C374.532,138.081 371.715,132.223 366.751,129.205C366.703,127.815 366.606,126.42 366.457,125.023C370.957,121.419 372.932,115.264 370.935,109.491C368.939,103.717 363.556,100.021 357.754,99.859C357.006,98.663 356.219,97.498 355.394,96.367C357.458,91.001 356.06,84.669 351.429,80.639C346.79,76.603 340.273,76.064 335.184,78.815C333.95,78.155 332.693,77.538 331.416,76.964C330.501,71.262 326.1,66.436 320.066,65.227C314.041,64.02 308.157,66.774 305.15,71.677C303.749,71.714 302.344,71.801 300.938,71.939C297.272,67.448 291.055,65.444 285.25,67.384C284.816,67.529 284.393,67.693 283.983,67.875L267.437,110.483L264.203,111.582C257.44,113.882 253.815,121.24 256.115,128.004L258.224,134.207L259.098,147.903L266.773,159.354L269.685,167.919C271.985,174.683 279.343,178.307 286.107,176.007L291.237,174.263Z" style="fill:#303335;"/><clipPath id="_clip14"><path d="M291.237,174.263L325.15,194.932C326.469,194.88 327.8,194.643 329.111,194.205C334.915,192.265 338.602,186.952 338.724,181.195C339.924,180.462 341.092,179.689 342.226,178.879C347.65,180.966 354.022,179.624 358.05,175.058C362.085,170.484 362.582,164.022 359.772,158.953C360.428,157.733 361.042,156.491 361.611,155.228C367.352,154.361 372.184,150.029 373.359,144.05C374.532,138.081 371.715,132.223 366.751,129.205C366.703,127.815 366.606,126.42 366.457,125.023C370.957,121.419 372.932,115.264 370.935,109.491C368.939,103.717 363.556,100.021 357.754,99.859C357.006,98.663 356.219,97.498 355.394,96.367C357.458,91.001 356.06,84.669 351.429,80.639C346.79,76.603 340.273,76.064 335.184,78.815C333.95,78.155 332.693,77.538 331.416,76.964C330.501,71.262 326.1,66.436 320.066,65.227C314.041,64.02 308.157,66.774 305.15,71.677C303.749,71.714 302.344,71.801 300.938,71.939C297.272,67.448 291.055,65.444 285.25,67.384C284.816,67.529 284.393,67.693 283.983,67.875L267.437,110.483L264.203,111.582C257.44,113.882 253.815,121.24 256.115,128.004L258.224,134.207L259.098,147.903L266.773,159.354L269.685,167.919C271.985,174.683 279.343,178.307 286.107,176.007L291.237,174.263Z"/></clipPath><g clip-path="url(#_clip14)"><path d="M348.471,182.037L234.348,137.075L337.105,203.784L348.471,182.037Z" style="fill:#252829;"/><path d="M372.982,124.605L250.306,150.131L374.141,156.069L372.982,124.605Z" style="fill:#252829;"/><path d="M308.678,64.994L245.609,170.198L286.413,54.681L308.678,64.994Z" style="fill:#252829;"/><path d="M363.116,95.585L250.302,150.121L344.857,69.934L363.116,95.585Z" style="fill:#252829;"/></g><g><path d="M489.998,1139.002C469.516,1130.113 447.506,1135.299 440.876,1150.575C434.247,1165.851 445.493,1185.47 465.975,1194.358C486.457,1203.247 508.467,1198.061 515.097,1182.785C521.726,1167.509 510.48,1147.89 489.998,1139.002Z" style="fill:#252829;"/><path d="M442.959,1166.973C436.443,1184.414 381.448,1148.333 381.448,1148.333C401.754,1102.839 455.094,1082.421 500.588,1102.727C535.883,1118.481 551.725,1159.865 535.971,1195.16C523.748,1222.544 491.64,1234.835 464.257,1222.612C443.011,1213.129 433.476,1188.219 442.959,1166.973C450.316,1150.49 469.642,1143.092 486.125,1150.449C498.914,1156.157 504.653,1171.152 498.945,1183.94C494.517,1193.862 482.884,1198.315 472.962,1193.886C465.264,1190.45 461.809,1181.425 465.245,1173.727C467.911,1167.755 474.913,1165.075 480.885,1167.74C485.519,1169.808 487.598,1175.241 485.53,1179.875C483.926,1183.469 479.711,1185.083 476.116,1183.478C473.327,1182.233 472.075,1178.963 473.32,1176.174" style="fill:#303335;"/></g><path d="M220.401,1103.028L254.314,1123.697C255.633,1123.645 256.964,1123.408 258.275,1122.97C264.079,1121.03 267.766,1115.717 267.888,1109.96C269.088,1109.227 270.256,1108.454 271.39,1107.644C276.814,1109.731 283.186,1108.389 287.214,1103.823C291.249,1099.249 291.746,1092.787 288.936,1087.718C289.592,1086.498 290.206,1085.256 290.775,1083.993C296.516,1083.126 301.348,1078.794 302.523,1072.815C303.696,1066.846 300.879,1060.988 295.915,1057.97C295.867,1056.58 295.77,1055.185 295.621,1053.788C300.121,1050.184 302.096,1044.029 300.099,1038.256C298.103,1032.482 292.72,1028.786 286.918,1028.624C286.17,1027.428 285.383,1026.263 284.558,1025.132C286.622,1019.766 285.224,1013.434 280.593,1009.404C275.954,1005.368 269.437,1004.829 264.348,1007.58C263.114,1006.92 261.857,1006.303 260.58,1005.729C259.665,1000.027 255.264,995.201 249.23,993.992C243.205,992.785 237.321,995.539 234.314,1000.442C232.913,1000.479 231.508,1000.566 230.102,1000.704C226.436,996.213 220.219,994.209 214.414,996.149C213.98,996.294 213.557,996.458 213.147,996.64L196.601,1039.248L193.367,1040.347C186.604,1042.647 182.979,1050.005 185.279,1056.769L187.388,1062.972L188.262,1076.668L195.937,1088.119L198.849,1096.684C201.149,1103.448 208.507,1107.072 215.271,1104.772L220.401,1103.028Z" style="fill:#303335;"/><clipPath id="_clip15"><path d="M220.401,1103.028L254.314,1123.697C255.633,1123.645 256.964,1123.408 258.275,1122.97C264.079,1121.03 267.766,1115.717 267.888,1109.96C269.088,1109.227 270.256,1108.454 271.39,1107.644C276.814,1109.731 283.186,1108.389 287.214,1103.823C291.249,1099.249 291.746,1092.787 288.936,1087.718C289.592,1086.498 290.206,1085.256 290.775,1083.993C296.516,1083.126 301.348,1078.794 302.523,1072.815C303.696,1066.846 300.879,1060.988 295.915,1057.97C295.867,1056.58 295.77,1055.185 295.621,1053.788C300.121,1050.184 302.096,1044.029 300.099,1038.256C298.103,1032.482 292.72,1028.786 286.918,1028.624C286.17,1027.428 285.383,1026.263 284.558,1025.132C286.622,1019.766 285.224,1013.434 280.593,1009.404C275.954,1005.368 269.437,1004.829 264.348,1007.58C263.114,1006.92 261.857,1006.303 260.58,1005.729C259.665,1000.027 255.264,995.201 249.23,993.992C243.205,992.785 237.321,995.539 234.314,1000.442C232.913,1000.479 231.508,1000.566 230.102,1000.704C226.436,996.213 220.219,994.209 214.414,996.149C213.98,996.294 213.557,996.458 213.147,996.64L196.601,1039.248L193.367,1040.347C186.604,1042.647 182.979,1050.005 185.279,1056.769L187.388,1062.972L188.262,1076.668L195.937,1088.119L198.849,1096.684C201.149,1103.448 208.507,1107.072 215.271,1104.772L220.401,1103.028Z"/></clipPath><g clip-path="url(#_clip15)"><path d="M277.635,1110.802L163.512,1065.84L266.269,1132.549L277.635,1110.802Z" style="fill:#252829;"/><path d="M302.146,1053.37L179.47,1078.896L303.305,1084.834L302.146,1053.37Z" style="fill:#252829;"/><path d="M237.842,993.759L174.773,1098.963L215.577,983.446L237.842,993.759Z" style="fill:#252829;"/><path d="M292.28,1024.35L179.466,1078.886L274.021,998.699L292.28,1024.35Z" style="fill:#252829;"/></g><path d="M674.796,1300.224L708.71,1320.893C710.028,1320.84 711.36,1320.603 712.67,1320.166C718.475,1318.226 722.162,1312.912 722.283,1307.156C723.484,1306.423 724.652,1305.65 725.786,1304.84C731.21,1306.926 737.581,1305.584 741.61,1301.018C745.644,1296.445 746.142,1289.982 743.331,1284.913C743.988,1283.694 744.601,1282.451 745.17,1281.189C750.911,1280.321 755.744,1275.989 756.919,1270.011C758.092,1264.041 755.274,1258.184 750.311,1255.165C750.263,1253.775 750.165,1252.38 750.016,1250.984C754.516,1247.379 756.492,1241.224 754.495,1235.451C752.498,1229.678 747.116,1225.982 741.313,1225.82C740.566,1224.623 739.778,1223.459 738.954,1222.328C741.018,1216.961 739.619,1210.63 734.988,1206.6C730.35,1202.564 723.833,1202.024 718.743,1204.776C717.509,1204.116 716.253,1203.498 714.976,1202.925C714.061,1197.222 709.66,1192.396 703.625,1191.188C697.6,1189.981 691.717,1192.734 688.71,1197.637C687.309,1197.675 685.904,1197.762 684.498,1197.9C680.832,1193.409 674.614,1191.405 668.81,1193.344C668.375,1193.489 667.953,1193.653 667.543,1193.835L650.997,1236.443L647.763,1237.543C640.999,1239.842 637.375,1247.201 639.675,1253.964L641.784,1260.168L642.657,1273.863L650.333,1285.315L653.245,1293.879C655.545,1300.643 662.903,1304.268 669.667,1301.968L674.796,1300.224Z" style="fill:#303335;"/><clipPath id="_clip16"><path d="M674.796,1300.224L708.71,1320.893C710.028,1320.84 711.36,1320.603 712.67,1320.166C718.475,1318.226 722.162,1312.912 722.283,1307.156C723.484,1306.423 724.652,1305.65 725.786,1304.84C731.21,1306.926 737.581,1305.584 741.61,1301.018C745.644,1296.445 746.142,1289.982 743.331,1284.913C743.988,1283.694 744.601,1282.451 745.17,1281.189C750.911,1280.321 755.744,1275.989 756.919,1270.011C758.092,1264.041 755.274,1258.184 750.311,1255.165C750.263,1253.775 750.165,1252.38 750.016,1250.984C754.516,1247.379 756.492,1241.224 754.495,1235.451C752.498,1229.678 747.116,1225.982 741.313,1225.82C740.566,1224.623 739.778,1223.459 738.954,1222.328C741.018,1216.961 739.619,1210.63 734.988,1206.6C730.35,1202.564 723.833,1202.024 718.743,1204.776C717.509,1204.116 716.253,1203.498 714.976,1202.925C714.061,1197.222 709.66,1192.396 703.625,1191.188C697.6,1189.981 691.717,1192.734 688.71,1197.637C687.309,1197.675 685.904,1197.762 684.498,1197.9C680.832,1193.409 674.614,1191.405 668.81,1193.344C668.375,1193.489 667.953,1193.653 667.543,1193.835L650.997,1236.443L647.763,1237.543C640.999,1239.842 637.375,1247.201 639.675,1253.964L641.784,1260.168L642.657,1273.863L650.333,1285.315L653.245,1293.879C655.545,1300.643 662.903,1304.268 669.667,1301.968L674.796,1300.224Z"/></clipPath><g clip-path="url(#_clip16)"><path d="M692.237,1190.954L629.169,1296.159L669.972,1180.641L692.237,1190.954Z" style="fill:#252829;"/><path d="M746.676,1221.545L633.862,1276.082L728.417,1195.894L746.676,1221.545Z" style="fill:#252829;"/></g><g><path d="M489.998,1139.002C469.516,1130.113 447.506,1135.299 440.876,1150.575C434.247,1165.851 445.493,1185.47 465.975,1194.358C486.457,1203.247 508.467,1198.061 515.097,1182.785C521.726,1167.509 510.48,1147.89 489.998,1139.002Z" style="fill:#252829;"/><path d="M442.959,1166.973C436.443,1184.414 381.448,1148.333 381.448,1148.333C401.754,1102.839 455.094,1082.421 500.588,1102.727C535.883,1118.481 551.725,1159.865 535.971,1195.16C523.748,1222.544 491.64,1234.835 464.257,1222.612C443.011,1213.129 433.476,1188.219 442.959,1166.973C450.316,1150.49 469.642,1143.092 486.125,1150.449C498.914,1156.157 504.653,1171.152 498.945,1183.94C494.517,1193.862 482.884,1198.315 472.962,1193.886C465.264,1190.45 461.809,1181.425 465.245,1173.727C467.911,1167.755 474.913,1165.075 480.885,1167.74C485.519,1169.808 487.598,1175.241 485.53,1179.875C483.926,1183.469 479.711,1185.083 476.116,1183.478C473.327,1182.233 472.075,1178.963 473.32,1176.174" style="fill:#303335;"/></g></g></svg>