<?xml version="1.0" encoding="UTF-8" standalone="no"?><!DOCTYPE svg PUBLIC "-//W3C//DTD SVG 1.1//EN" "http://www.w3.org/Graphics/SVG/1.1/DTD/svg11.dtd"><svg width="100%" height="100%" viewBox="0 0 295 98" version="1.1" xmlns="http://www.w3.org/2000/svg" xmlns:xlink="http://www.w3.org/1999/xlink" xml:space="preserve" xmlns:serif="http://www.serif.com/" style="fill-rule:evenodd;clip-rule:evenodd;stroke-linejoin:round;stroke-miterlimit:2;"><path d="M294.44,24.898L294.44,73.102C294.44,86.405 283.64,97.204 270.338,97.204L24.794,97.204C11.492,97.204 0.692,86.405 0.692,73.102L0.692,24.898C0.692,11.595 11.492,0.796 24.794,0.796L270.338,0.796C283.64,0.796 294.44,11.595 294.44,24.898Z" style="fill:#44c854;"/><clipPath id="_clip1"><path d="M294.44,24.898L294.44,73.102C294.44,86.405 283.64,97.204 270.338,97.204L24.794,97.204C11.492,97.204 0.692,86.405 0.692,73.102L0.692,24.898C0.692,11.595 11.492,0.796 24.794,0.796L270.338,0.796C283.64,0.796 294.44,11.595 294.44,24.898Z"/></clipPath><g clip-path="url(#_clip1)"><g transform="matrix(58.408147,0,0,58.408147,206.587551,71.428728)"></g><text x="89.771px" y="71.429px" style="font-family:'MiSans-Bold', 'MiSans';font-weight:700;font-size:58.408px;fill:#f2ede1;">购买</text></g></svg>