<?xml version="1.0" encoding="UTF-8" standalone="no"?><!DOCTYPE svg PUBLIC "-//W3C//DTD SVG 1.1//EN" "http://www.w3.org/Graphics/SVG/1.1/DTD/svg11.dtd"><svg width="100%" height="100%" viewBox="741.861 487.308 295 98" version="1.1" xmlns="http://www.w3.org/2000/svg" xmlns:xlink="http://www.w3.org/1999/xlink" xml:space="preserve" xmlns:serif="http://www.serif.com/" style="fill-rule:evenodd;clip-rule:evenodd;stroke-linejoin:round;stroke-miterlimit:2;"><g transform="matrix(1,0,0,1,-747,-491)"><g transform="matrix(1,0,0,1,5.831465,4.487489)"><path d="M1035.609,511.41L1035.609,559.615C1035.609,572.917 1024.809,583.717 1011.506,583.717L765.963,583.717C752.661,583.717 741.861,572.917 741.861,559.615L741.861,511.41C741.861,498.108 752.661,487.308 765.963,487.308L1011.506,487.308C1024.809,487.308 1035.609,498.108 1035.609,511.41Z" style="fill:#44c854;"/><clipPath id="_clip1"><path d="M1035.609,511.41L1035.609,559.615C1035.609,572.917 1024.809,583.717 1011.506,583.717L765.963,583.717C752.661,583.717 741.861,572.917 741.861,559.615L741.861,511.41C741.861,498.108 752.661,487.308 765.963,487.308L1011.506,487.308C1024.809,487.308 1035.609,498.108 1035.609,511.41Z"/></clipPath><g clip-path="url(#_clip1)"><g transform="matrix(1,0,0,1,48.850514,-0.537303)"><g transform="matrix(58.408147,0,0,58.408147,898.905573,558.478543)"></g><text x="782.089px" y="558.479px" style="font-family:'MiSans-Bold', 'MiSans';font-weight:700;font-size:58.408px;fill:#f2ede1;">购买</text></g></g></g></g></svg>