<?xml version="1.0" encoding="UTF-8" standalone="no"?><!DOCTYPE svg PUBLIC "-//W3C//DTD SVG 1.1//EN" "http://www.w3.org/Graphics/SVG/1.1/DTD/svg11.dtd"><svg width="100%" height="100%" viewBox="0 0 81 56" version="1.1" xmlns="http://www.w3.org/2000/svg" xmlns:xlink="http://www.w3.org/1999/xlink" xml:space="preserve" xmlns:serif="http://www.serif.com/" style="fill-rule:evenodd;clip-rule:evenodd;stroke-linejoin:round;stroke-miterlimit:2;"><path d="M51.829,9.824l8.19,-7.161l1.888,-2.074l0.144,0.297l0.783,-0.684l2.932,8.323l3.859,7.936l-1.037,0.076l0.11,0.312l-2.802,-0.115l-10.85,0.791c-5.553,6.09 -13.633,14.225 -19.048,16.487c-6.134,2.562 -13.195,-0.338 -15.757,-6.473c-2.562,-6.134 0.338,-13.195 6.473,-15.757c5.414,-2.261 16.881,-2.29 25.115,-1.958Zm-24.742,11.319c-1.662,0.694 -2.448,2.607 -1.754,4.269c0.694,1.662 2.607,2.448 4.269,1.754c1.662,-0.694 2.448,-2.607 1.754,-4.269c-0.694,-1.662 -2.607,-2.448 -4.269,-1.754Zm53.069,25.464l0,2.17c-0,1.482 -0.43,2.684 -1.633,2.684l-13.58,4.209l-12.169,-4.209l-12.947,4.209l-12.678,-4.546l-13.07,4.546l-12.189,-4.321c-1.203,0 -1.122,-0.997 -1.122,-2.479l0.173,-2.432c-0,-1.482 1.114,-1.506 2.317,-1.506c3.633,0 7.374,3.433 10.955,3.219c4.391,-0.262 8.609,-4.141 12.937,-3.62c4.249,0.512 8.473,3.6 12.678,3.6c4.301,-0 8.445,-3.049 12.716,-3.523c4.207,-0.467 8.574,3.814 12.803,4.007c4.357,0.199 8.576,-3.683 12.903,-3.683c1.203,0 1.907,0.193 1.907,1.674Z" style="fill:#99ccf2;"/></svg>