<?xml version="1.0" encoding="UTF-8" standalone="no"?><!DOCTYPE svg PUBLIC "-//W3C//DTD SVG 1.1//EN" "http://www.w3.org/Graphics/SVG/1.1/DTD/svg11.dtd"><svg width="100%" height="100%" viewBox="0 0 1128 260" version="1.1" xmlns="http://www.w3.org/2000/svg" xmlns:xlink="http://www.w3.org/1999/xlink" xml:space="preserve" xmlns:serif="http://www.serif.com/" style="fill-rule:evenodd;clip-rule:evenodd;stroke-linejoin:round;stroke-miterlimit:2;"><path d="M1120.76,77.287c7.788,24.552 8.559,42.867 5.41,67.519c-3.546,27.755 -20.522,73.004 -59.841,95.033c-49.516,27.742 -229.246,10.387 -263.138,10.387c-303.301,-21.272 -455.866,-5.035 -614.054,3.477c-67.461,3.63 -118.81,10.972 -147.138,-2.163c-30.747,-14.257 -29.829,-32.884 -24.629,-75.856c7.619,-62.958 -10.868,-37.243 -16.839,-89.11c-3.88,-33.703 28.829,-53.526 54.84,-64.035c54.446,-21.996 267.441,-5.226 383.214,-1.151c181.679,6.395 217.126,2.633 286.961,-3.676c182.157,-16.455 256.024,-29.335 332.308,1.223c33.344,13.357 51.71,23.058 62.906,58.351Z" style="fill:#f4efe3;"/></svg>