<?xml version="1.0" encoding="UTF-8" standalone="no"?><!DOCTYPE svg PUBLIC "-//W3C//DTD SVG 1.1//EN" "http://www.w3.org/Graphics/SVG/1.1/DTD/svg11.dtd"><svg width="100%" height="100%" viewBox="1087.384 102.777 665 827" version="1.1" xmlns="http://www.w3.org/2000/svg" xmlns:xlink="http://www.w3.org/1999/xlink" xml:space="preserve" xmlns:serif="http://www.serif.com/" style="fill-rule:evenodd;clip-rule:evenodd;stroke-linejoin:round;stroke-miterlimit:2;"><g transform="matrix(1,0,0,1,-1155,-155)"><path d="M1819.376,222.611L1819.376,914.472C1819.376,951.658 1789.185,981.849 1751.998,981.849L1222.604,981.849C1185.418,981.849 1155.227,951.658 1155.227,914.472L1155.227,222.611C1155.227,185.424 1185.418,155.234 1222.604,155.234L1751.998,155.234C1789.185,155.234 1819.376,185.424 1819.376,222.611Z" style="fill:#f2ede1;"/><clipPath id="_clip1"><path d="M1819.376,222.611L1819.376,914.472C1819.376,951.658 1789.185,981.849 1751.998,981.849L1222.604,981.849C1185.418,981.849 1155.227,951.658 1155.227,914.472L1155.227,222.611C1155.227,185.424 1185.418,155.234 1222.604,155.234L1751.998,155.234C1789.185,155.234 1819.376,185.424 1819.376,222.611Z"/></clipPath><g clip-path="url(#_clip1)"><g transform="matrix(1,0,0,1,0.892673,-32.13624)"><rect x="1087.384" y="102.777" width="798.05" height="212.456" style="fill:#252829;"/></g><g transform="matrix(0.733321,0,0,0.733321,298.090404,67.493692)"><g transform="matrix(63.400669,0,0,63.400669,1341.665031,248.778169)"></g><text x="1214.864px" y="248.778px" style="font-family:'MiSans-Bold', 'MiSans';font-weight:700;font-size:63.401px;fill:#f2ede1;">背包</text></g></g></g></svg>