<?xml version="1.0" encoding="UTF-8" standalone="no"?><!DOCTYPE svg PUBLIC "-//W3C//DTD SVG 1.1//EN" "http://www.w3.org/Graphics/SVG/1.1/DTD/svg11.dtd"><svg width="100%" height="100%" viewBox="0 0 59 56" version="1.1" xmlns="http://www.w3.org/2000/svg" xmlns:xlink="http://www.w3.org/1999/xlink" xml:space="preserve" xmlns:serif="http://www.serif.com/" style="fill-rule:evenodd;clip-rule:evenodd;stroke-linejoin:round;stroke-miterlimit:2;"><g><circle cx="34.406" cy="32.008" r="23.733" style="fill:#636363;fill-opacity:0.38;"/><circle cx="27.964" cy="28.06" r="23.733" style="fill:#b58204;"/><circle cx="23.964" cy="23.981" r="23.733" style="fill:#f9b305;"/><clipPath id="_clip1"><circle cx="23.964" cy="23.981" r="23.733"/></clipPath><g clip-path="url(#_clip1)"><path d="M42.241,-13.454L-3.513,54.822L-7.534,52.128L38.22,-16.148L42.241,-13.454Z" style="fill:#fdf0c3;"/><path d="M57.143,-6.418L11.389,61.858L0.231,54.381L45.985,-13.895L57.143,-6.418Z" style="fill:#fdf0c3;"/></g><circle cx="23.964" cy="23.981" r="18.277" style="fill:#fce390;"/><path d="M34.406,29.101C34.406,31.003 33.739,32.603 32.403,33.903C31.067,35.202 29.277,36.064 27.031,36.486L27.208,39.688L21.216,39.688L21.429,36.518C19.608,36.159 18.019,35.472 16.659,34.458C15.3,33.443 14.254,32.196 13.521,30.717L18.592,28.498C19.065,29.597 19.78,30.432 20.737,31.003C21.694,31.573 22.8,31.858 24.053,31.858C25.329,31.858 26.334,31.636 27.067,31.193C27.799,30.749 28.166,30.147 28.166,29.386C28.166,28.9 28.012,28.488 27.705,28.15C27.397,27.812 26.889,27.5 26.18,27.215C25.471,26.929 24.443,26.618 23.095,26.28C21.275,25.815 19.78,25.35 18.61,24.885C17.439,24.42 16.405,23.691 15.507,22.698C14.609,21.705 14.159,20.394 14.159,18.767C14.159,16.95 14.827,15.391 16.163,14.092C17.499,12.792 19.254,11.931 21.429,11.508L21.216,8.275L27.208,8.275L26.996,11.54C30.187,12.153 32.586,13.991 34.194,17.056L29.194,19.274C28.627,18.176 27.935,17.378 27.12,16.881C26.304,16.385 25.329,16.136 24.194,16.136C23.083,16.136 22.173,16.358 21.464,16.802C20.755,17.246 20.4,17.806 20.4,18.482C20.4,19.031 20.53,19.475 20.79,19.813C21.05,20.151 21.511,20.458 22.173,20.732C22.835,21.007 23.84,21.314 25.187,21.652C27.031,22.095 28.562,22.545 29.779,22.999C30.997,23.453 32.072,24.172 33.006,25.154C33.94,26.137 34.406,27.452 34.406,29.101Z" style="fill:#f9b305;fill-rule:nonzero;"/></g></svg>