<?xml version="1.0" encoding="UTF-8" standalone="no"?><!DOCTYPE svg PUBLIC "-//W3C//DTD SVG 1.1//EN" "http://www.w3.org/Graphics/SVG/1.1/DTD/svg11.dtd"><svg width="100%" height="100%" viewBox="0 0 379 344" version="1.1" xmlns="http://www.w3.org/2000/svg" xmlns:xlink="http://www.w3.org/1999/xlink" xml:space="preserve" xmlns:serif="http://www.serif.com/" style="fill-rule:evenodd;clip-rule:evenodd;stroke-linecap:round;stroke-linejoin:round;stroke-miterlimit:1.5;"><path d="M378.813,50.429L378.813,293.724C378.813,321.128 356.564,343.377 329.161,343.377L49.972,343.377C22.568,343.377 0.319,321.128 0.319,293.724L0.319,50.429C0.319,23.025 22.568,0.777 49.972,0.777L329.161,0.777C356.564,0.777 378.813,23.025 378.813,50.429Z" style="fill:#f2ede1;"/><clipPath id="_clip1"><path d="M378.813,50.429L378.813,293.724C378.813,321.128 356.564,343.377 329.161,343.377L49.972,343.377C22.568,343.377 0.319,321.128 0.319,293.724L0.319,50.429C0.319,23.025 22.568,0.777 49.972,0.777L329.161,0.777C356.564,0.777 378.813,23.025 378.813,50.429Z"/></clipPath><g clip-path="url(#_clip1)"><path d="M21.744,94.297C356.539,94.297 345.752,94.297 345.752,94.297" style="fill:#d8dada;"/><path d="M345.752,97.785L320.624,97.785C318.699,97.785 317.136,96.222 317.136,94.297C317.136,92.372 318.699,90.809 320.624,90.809L345.757,90.809L345.752,97.785ZM345.752,97.785L345.79,90.809L345.757,97.785L345.752,97.785ZM21.744,97.785C19.818,97.785 18.255,96.222 18.255,94.297C18.255,92.372 19.818,90.809 21.744,90.809L46.951,90.809C48.876,90.809 50.439,92.372 50.439,94.297C50.439,96.222 48.876,97.785 46.951,97.785L21.744,97.785ZM61.354,97.785C59.429,97.785 57.866,96.222 57.866,94.297C57.866,92.372 59.429,90.809 61.354,90.809L111.767,90.809C113.693,90.809 115.255,92.372 115.255,94.297C115.255,96.222 113.693,97.785 111.767,97.785L61.354,97.785ZM126.172,97.785C124.247,97.785 122.684,96.222 122.684,94.297C122.684,92.372 124.247,90.809 126.172,90.809L176.586,90.809C178.511,90.809 180.074,92.372 180.074,94.297C180.074,96.222 178.511,97.785 176.586,97.785L126.172,97.785ZM190.989,97.785C189.064,97.785 187.501,96.222 187.501,94.297C187.501,92.372 189.064,90.809 190.989,90.809L241.403,90.809C243.328,90.809 244.891,92.372 244.891,94.297C244.891,96.222 243.328,97.785 241.403,97.785L190.989,97.785ZM255.807,97.785C253.881,97.785 252.319,96.222 252.319,94.297C252.319,92.372 253.881,90.809 255.807,90.809L306.22,90.809C308.145,90.809 309.708,92.372 309.708,94.297C309.708,96.222 308.145,97.785 306.22,97.785L255.807,97.785Z" style="fill:#d8dada;"/><path d="M65.804,177.149C69.779,179.184 72.503,183.322 72.503,188.091L79.967,212.662C79.967,219.443 74.462,224.948 67.682,224.948L35.024,224.948C28.244,224.948 22.739,219.443 22.739,212.662L30.203,188.091C30.203,183.322 32.927,179.184 36.902,177.149C36.875,176.777 36.861,176.401 36.861,176.022C36.861,167.845 43.355,161.206 51.353,161.206C59.352,161.206 65.845,167.845 65.845,176.022C65.845,176.401 65.831,176.777 65.804,177.149ZM44.11,175.806L58.596,175.806C58.484,171.817 55.282,168.614 51.353,168.614C47.424,168.614 44.222,171.817 44.11,175.806Z" style="fill:#cbc771;"/><clipPath id="_clip2"><path d="M65.804,177.149C69.779,179.184 72.503,183.322 72.503,188.091L79.967,212.662C79.967,219.443 74.462,224.948 67.682,224.948L35.024,224.948C28.244,224.948 22.739,219.443 22.739,212.662L30.203,188.091C30.203,183.322 32.927,179.184 36.902,177.149C36.875,176.777 36.861,176.401 36.861,176.022C36.861,167.845 43.355,161.206 51.353,161.206C59.352,161.206 65.845,167.845 65.845,176.022C65.845,176.401 65.831,176.777 65.804,177.149ZM44.11,175.806L58.596,175.806C58.484,171.817 55.282,168.614 51.353,168.614C47.424,168.614 44.222,171.817 44.11,175.806Z"/></clipPath><g clip-path="url(#_clip2)"><path d="M50.431,208.084L45.559,208.084L41.54,201.753L40.852,201.753L40.852,208.084L36.861,208.084L36.861,187.164L40.852,187.164L40.852,198.698L41.705,198.698L45.586,193.22L50.211,193.22L44.926,200.157L50.431,208.084Z" style="fill:#f2ede1;fill-rule:nonzero;"/><path d="M65.845,193.22L65.845,206.928C65.845,207.955 65.708,208.878 65.433,209.694C65.157,210.511 64.694,211.208 64.042,211.786C63.391,212.364 62.542,212.809 61.496,213.121C60.45,213.433 59.157,213.589 57.615,213.589C56.936,213.589 56.211,213.557 55.441,213.493C54.67,213.428 53.982,213.341 53.376,213.231L53.376,210.066C53.963,210.213 54.606,210.323 55.303,210.396C56,210.469 56.67,210.506 57.312,210.506C58.12,210.506 58.813,210.442 59.391,210.313C59.969,210.185 60.441,209.979 60.808,209.694C61.175,209.41 61.446,209.029 61.62,208.552C61.795,208.075 61.882,207.478 61.882,206.763L61.882,205.964C61.57,206.625 61.079,207.143 60.409,207.52C59.739,207.896 58.735,208.084 57.395,208.084C56.184,208.084 55.193,207.9 54.422,207.533C53.651,207.166 53.037,206.653 52.578,205.992C52.119,205.331 51.803,204.538 51.628,203.611C51.454,202.684 51.367,201.652 51.367,200.514C51.367,199.505 51.454,198.542 51.628,197.624C51.803,196.707 52.119,195.899 52.578,195.202C53.037,194.505 53.651,193.954 54.422,193.55C55.193,193.147 56.184,192.945 57.395,192.945C58.753,192.945 59.767,193.133 60.437,193.509C61.106,193.885 61.588,194.422 61.882,195.119L61.882,193.22L65.845,193.22ZM58.579,205.166C59.313,205.166 59.909,205.061 60.368,204.85C60.827,204.639 61.184,204.336 61.441,203.941C61.698,203.547 61.868,203.06 61.95,202.482C62.033,201.904 62.074,201.248 62.074,200.514C62.074,199.799 62.033,199.161 61.95,198.601C61.868,198.042 61.698,197.56 61.441,197.156C61.184,196.752 60.827,196.445 60.368,196.234C59.909,196.023 59.313,195.918 58.579,195.918C57.881,195.918 57.326,196.046 56.913,196.303C56.5,196.56 56.188,196.899 55.977,197.321C55.766,197.743 55.629,198.23 55.565,198.78C55.5,199.331 55.468,199.909 55.468,200.514C55.468,201.157 55.5,201.758 55.565,202.317C55.629,202.877 55.771,203.368 55.991,203.79C56.211,204.212 56.528,204.547 56.941,204.795C57.354,205.042 57.9,205.166 58.579,205.166Z" style="fill:#f2ede1;fill-rule:nonzero;"/></g><path d="M46.707,252.946C42.857,277.746 40.25,279.567 39.206,286.74C37.913,295.618 39.933,298.34 43.839,301.583C48.109,305.129 54.866,303.286 58.257,298.358C59.952,295.895 61.245,292.327 60.139,287.507" style="fill:none;stroke:#7b8084;stroke-width:6.98px;"/></g></svg>