<?xml version="1.0" encoding="UTF-8" standalone="no"?><!DOCTYPE svg PUBLIC "-//W3C//DTD SVG 1.1//EN" "http://www.w3.org/Graphics/SVG/1.1/DTD/svg11.dtd"><svg width="100%" height="100%" viewBox="0 0 665 827" version="1.1" xmlns="http://www.w3.org/2000/svg" xmlns:xlink="http://www.w3.org/1999/xlink" xml:space="preserve" xmlns:serif="http://www.serif.com/" style="fill-rule:evenodd;clip-rule:evenodd;stroke-linejoin:round;stroke-miterlimit:2;"><path d="M664.376,67.611L664.376,759.472C664.376,796.658 634.185,826.849 596.998,826.849L67.604,826.849C30.418,826.849 0.227,796.658 0.227,759.472L0.227,67.611C0.227,30.424 30.418,0.234 67.604,0.234L596.998,0.234C634.185,0.234 664.376,30.424 664.376,67.611Z" style="fill:#f2ede1;"/><clipPath id="_clip1"><path d="M664.376,67.611L664.376,759.472C664.376,796.658 634.185,826.849 596.998,826.849L67.604,826.849C30.418,826.849 0.227,796.658 0.227,759.472L0.227,67.611C0.227,30.424 30.418,0.234 67.604,0.234L596.998,0.234C634.185,0.234 664.376,30.424 664.376,67.611Z"/></clipPath><g clip-path="url(#_clip1)"><rect x="-66.724" y="-84.36" width="798.05" height="212.456" style="fill:#252829;"/><path d="M54.2,71.495L48.016,71.495L48.016,70.008L36.997,72.053L36.253,66.753L48.016,64.8L48.016,62.848L36.997,62.848L36.997,57.64L48.016,57.64L48.016,55.409L54.2,55.409L54.2,71.495ZM78.19,63.731C78.159,63.979 78.136,64.467 78.12,65.196C78.105,65.924 78.066,66.567 78.004,67.125C77.88,68.489 77.609,69.481 77.19,70.101C76.772,70.721 76.129,71.131 75.261,71.333C74.393,71.534 73.06,71.635 71.263,71.635L64.428,71.635C62.94,71.635 61.801,71.511 61.011,71.263C60.22,71.015 59.647,70.558 59.291,69.891C58.934,69.225 58.756,68.256 58.756,66.986L58.756,55.409L64.986,55.409L64.986,59.454C69.108,58.183 72.657,56.959 75.633,55.781L77.4,60.663C72.44,62.274 68.303,63.561 64.986,64.521L64.986,64.8C64.986,65.451 65.11,65.885 65.358,66.102C65.606,66.319 66.148,66.428 66.985,66.428L69.868,66.428C70.767,66.428 71.371,66.319 71.681,66.102C71.991,65.885 72.146,65.529 72.146,65.033L72.285,62.476L78.19,63.731ZM40.252,98.089L40.252,72.937L74.285,72.937L74.285,91.208C74.285,93.037 74.044,94.44 73.564,95.416C73.084,96.392 72.309,97.082 71.239,97.485C70.17,97.888 68.659,98.089 66.706,98.089L59.174,98.089L57.966,92.464L65.172,92.464C66.04,92.464 66.629,92.324 66.939,92.045C67.249,91.766 67.419,91.286 67.45,90.604L47.086,90.604L47.086,98.089L40.252,98.089ZM67.45,79.818L67.45,77.586L47.086,77.586L47.086,79.818L67.45,79.818ZM47.086,84.095L47.086,86.327L67.45,86.327L67.45,84.095L47.086,84.095Z" style="fill:#f2ede1;fill-rule:nonzero;"/><path d="M124.497,86.42C124.187,89.364 123.939,91.487 123.753,92.789C123.567,94.184 123.203,95.253 122.661,95.997C122.118,96.741 121.297,97.268 120.196,97.578C119.096,97.888 117.539,98.043 115.524,98.043L95.021,98.043C93.161,98.043 91.689,97.841 90.604,97.439C89.519,97.036 88.713,96.315 88.186,95.277C87.659,94.238 87.396,92.774 87.396,90.883L87.396,73.774C86.59,74.61 85.753,75.447 84.885,76.284L82.281,69.078C84.42,67.187 86.303,64.971 87.93,62.429C89.558,59.888 90.852,57.284 91.813,54.618L98.972,55.827L97.438,59.268L120.871,59.268L120.638,71.495C120.514,77.756 120.452,80.887 120.452,80.887C120.39,82.809 120.049,84.296 119.429,85.35L124.497,86.42ZM94.044,65.358C93.176,66.66 92.494,67.636 91.998,68.287L109.294,68.287L109.294,81.956L110.828,81.956C111.913,81.956 112.665,81.894 113.083,81.77C113.501,81.646 113.78,81.398 113.92,81.026C114.059,80.655 114.145,79.973 114.176,78.981C114.269,77.245 114.354,74.897 114.431,71.937C114.509,68.977 114.563,66.784 114.594,65.358L94.044,65.358ZM103.296,79.12L103.296,74.517L93.486,74.517L93.486,79.12L103.296,79.12ZM114.734,91.952C115.57,91.952 116.198,91.89 116.617,91.766C117.035,91.642 117.337,91.394 117.523,91.022C117.709,90.651 117.802,90.077 117.802,89.302C117.802,88.62 117.849,87.814 117.942,86.885C116.671,87.721 114.641,88.14 111.851,88.14L107.016,88.14L106.411,85.071L93.486,85.071L93.486,89.302C93.486,90.139 93.564,90.736 93.719,91.092C93.874,91.449 94.153,91.681 94.556,91.79C94.959,91.898 95.64,91.952 96.601,91.952L114.734,91.952Z" style="fill:#f2ede1;fill-rule:nonzero;"/></g></svg>