<?xml version="1.0" encoding="UTF-8" standalone="no"?><!DOCTYPE svg PUBLIC "-//W3C//DTD SVG 1.1//EN" "http://www.w3.org/Graphics/SVG/1.1/DTD/svg11.dtd"><svg width="100%" height="100%" viewBox="0 0 295 98" version="1.1" xmlns="http://www.w3.org/2000/svg" xmlns:xlink="http://www.w3.org/1999/xlink" xml:space="preserve" xmlns:serif="http://www.serif.com/" style="fill-rule:evenodd;clip-rule:evenodd;stroke-linejoin:round;stroke-miterlimit:2;"><path d="M294.44,24.898L294.44,73.102C294.44,86.405 283.64,97.204 270.338,97.204L24.794,97.204C11.492,97.204 0.692,86.405 0.692,73.102L0.692,24.898C0.692,11.595 11.492,0.796 24.794,0.796L270.338,0.796C283.64,0.796 294.44,11.595 294.44,24.898Z" style="fill:#44c854;"/><clipPath id="_clip1"><path d="M294.44,24.898L294.44,73.102C294.44,86.405 283.64,97.204 270.338,97.204L24.794,97.204C11.492,97.204 0.692,86.405 0.692,73.102L0.692,24.898C0.692,11.595 11.492,0.796 24.794,0.796L270.338,0.796C283.64,0.796 294.44,11.595 294.44,24.898Z"/></clipPath><g clip-path="url(#_clip1)"><path d="M144.032,28.031L143.74,39.596L143.039,66.698C143.001,69.774 142.251,71.964 140.791,73.269C139.331,74.573 137.062,75.225 133.986,75.225L125.984,75.225L124.407,67.691L131.533,67.691C132.935,67.691 133.928,67.603 134.512,67.428C135.096,67.253 135.495,66.892 135.709,66.347C135.923,65.802 136.05,64.868 136.089,63.544C136.089,63.154 136.108,62.784 136.147,62.434L132.059,64.186C131.786,63.524 131.494,62.668 131.183,61.616L117.574,63.252L115.354,56.359C116.405,54.607 117.564,52.135 118.829,48.942C120.095,45.749 121.175,42.711 122.071,39.83C121.214,41.387 120.533,42.595 120.027,43.451L115.12,40.356L115.12,59.455L109.221,59.455L109.221,31.711L99.876,31.711L99.876,59.63L94.327,59.63L94.327,24.06L115.12,24.06L115.12,37.143C116.483,34.729 117.739,32.169 118.888,29.462C120.036,26.756 120.961,24.177 121.662,21.723L128.729,23.417C128.379,24.663 127.873,26.201 127.211,28.031L144.032,28.031ZM107.586,58.521C109.299,60.078 111.188,61.86 113.251,63.865C115.315,65.87 116.873,67.438 117.924,68.567L113.076,74.349L105.6,66.347C104.782,68.061 103.682,69.706 102.3,71.283C100.917,72.86 99.175,74.466 97.072,76.101L92.049,70.319C94.58,68.722 96.527,67.087 97.89,65.413C99.253,63.738 100.217,61.801 100.781,59.601C101.346,57.401 101.628,54.646 101.628,51.336L101.628,34.281L107.819,34.281L107.819,53.147C107.819,55.289 107.741,57.08 107.586,58.521ZM131.475,44.795C132.876,48.65 134.453,53.147 136.206,58.287C136.517,45.32 136.634,37.825 136.556,35.8L124.057,35.8L122.83,38.311L128.963,40.239C128.379,42.225 127.678,44.386 126.86,46.722L131.475,44.795ZM128.788,54.958L126.977,49.993C126.821,49.642 126.695,49.321 126.598,49.029C126.5,48.737 126.393,48.474 126.276,48.241C125.069,51.628 124.076,54.043 123.298,55.483L128.788,54.958Z" style="fill:#f2ede1;fill-rule:nonzero;"/><path d="M162.84,30.952L153.203,30.952L153.203,23.417L202.032,23.417L202.032,31.01L198.761,42.4L190.584,40.297L193.738,30.952L164.358,30.952L176.741,37.786L173.003,44.561C171.29,43.471 169.012,42.088 166.169,40.414C163.327,38.74 161.127,37.494 159.569,36.676L162.84,30.952ZM203.083,59.747L184.743,59.747C184.704,59.903 184.607,60.136 184.451,60.448C184.801,60.604 185.21,60.789 185.677,61.003C186.145,61.217 186.67,61.46 187.254,61.733C194.886,65.16 199.91,67.476 202.324,68.684L198.761,76.277C191.207,72.383 184.918,69.209 179.895,66.756C177.52,68.937 174.356,70.757 170.404,72.217C166.451,73.677 161.36,74.933 155.13,75.985L152.268,67.632C158.303,66.776 163.093,65.724 166.636,64.478C170.18,63.232 172.867,61.655 174.697,59.747L151.918,59.747L151.918,52.329L165.877,52.329L154.838,45.788L158.284,39.596C163.463,42.439 168.194,45.126 172.477,47.657L170.141,52.329L178.318,52.329C178.746,50.032 178.999,47.228 179.077,43.918C179.077,43.179 179.097,42.556 179.136,42.049C179.253,36.325 179.311,33.327 179.311,33.055L188.014,33.055C188.014,34.729 187.975,36.851 187.897,39.421C187.819,41.991 187.741,43.821 187.663,44.911C187.508,47.326 187.235,49.798 186.846,52.329L203.083,52.329L203.083,59.747Z" style="fill:#f2ede1;fill-rule:nonzero;"/></g></svg>