<?xml version="1.0" encoding="UTF-8" standalone="no"?><!DOCTYPE svg PUBLIC "-//W3C//DTD SVG 1.1//EN" "http://www.w3.org/Graphics/SVG/1.1/DTD/svg11.dtd"><svg width="100%" height="100%" viewBox="0 0 59 57" version="1.1" xmlns="http://www.w3.org/2000/svg" xmlns:xlink="http://www.w3.org/1999/xlink" xml:space="preserve" xmlns:serif="http://www.serif.com/" style="fill-rule:evenodd;clip-rule:evenodd;stroke-linejoin:round;stroke-miterlimit:2;"><g><circle cx="34.406" cy="32.464" r="23.733" style="fill:#636363;fill-opacity:0.38;"/><circle cx="27.964" cy="28.517" r="23.733" style="fill:#b58204;"/><circle cx="23.964" cy="24.438" r="23.733" style="fill:#f9b305;"/><clipPath id="_clip1"><circle cx="23.964" cy="24.438" r="23.733"/></clipPath><g clip-path="url(#_clip1)"><path d="M42.241,-12.998L-3.513,55.278L-7.534,52.584L38.22,-15.692L42.241,-12.998Z" style="fill:#fdf0c3;"/><path d="M57.143,-5.962L11.389,62.314L0.231,54.837L45.985,-13.439L57.143,-5.962Z" style="fill:#fdf0c3;"/></g><circle cx="23.964" cy="24.438" r="18.277" style="fill:#fce390;"/><path d="M34.406,29.557C34.406,31.459 33.739,33.06 32.403,34.359C31.067,35.659 29.277,36.52 27.031,36.942L27.208,40.144L21.216,40.144L21.429,36.974C19.608,36.615 18.019,35.928 16.659,34.914C15.3,33.899 14.254,32.653 13.521,31.174L18.592,28.955C19.065,30.054 19.78,30.888 20.737,31.459C21.694,32.029 22.8,32.315 24.053,32.315C25.329,32.315 26.334,32.093 27.067,31.649C27.799,31.205 28.166,30.603 28.166,29.842C28.166,29.356 28.012,28.944 27.705,28.606C27.397,28.268 26.889,27.956 26.18,27.671C25.471,27.386 24.443,27.074 23.095,26.736C21.275,26.271 19.78,25.806 18.61,25.341C17.439,24.876 16.405,24.147 15.507,23.154C14.609,22.161 14.159,20.851 14.159,19.223C14.159,17.406 14.827,15.848 16.163,14.548C17.499,13.248 19.254,12.387 21.429,11.965L21.216,8.732L27.208,8.732L26.996,11.996C30.187,12.609 32.586,14.448 34.194,17.512L29.194,19.731C28.627,18.632 27.935,17.834 27.12,17.337C26.304,16.841 25.329,16.593 24.194,16.593C23.083,16.593 22.173,16.814 21.464,17.258C20.755,17.702 20.4,18.262 20.4,18.938C20.4,19.488 20.53,19.931 20.79,20.27C21.05,20.608 21.511,20.914 22.173,21.189C22.835,21.463 23.84,21.77 25.187,22.108C27.031,22.552 28.562,23.001 29.779,23.455C30.997,23.909 32.072,24.628 33.006,25.611C33.94,26.593 34.406,27.909 34.406,29.557Z" style="fill:#f9b305;fill-rule:nonzero;"/></g></svg>